<svg width="526" height="250" viewBox="0 0 526 250" fill="none" xmlns="http://www.w3.org/2000/svg">
<path d="M3.8125 113.625C3.8125 106.875 6.3125 100.854 11.3125 95.5625C17.3958 89.1458 24.6667 85.9375 33.125 85.9375C41.5833 85.9375 48.8333 89.1458 54.875 95.5625C59.875 100.896 62.375 106.938 62.375 113.688C62.375 120.354 60 126.292 55.25 131.5C49.4167 137.917 42.0417 141.125 33.125 141.125C24.2083 141.125 16.8125 137.917 10.9375 131.5C8.64583 129 6.875 126.208 5.625 123.125C4.41667 120.042 3.8125 116.875 3.8125 113.625ZM15.1875 112.938C15.1875 120.188 16.8125 126.333 20.0625 131.375C23.7292 137 28.2083 139.812 33.5 139.812C35.75 139.812 37.9375 139.188 40.0625 137.938C42.1875 136.688 44.0208 134.938 45.5625 132.688C47.1875 130.354 48.5 127.438 49.5 123.938C50.5 120.396 51 116.979 51 113.688C51 110.271 50.4583 106.833 49.375 103.375C48.3333 99.875 46.9167 96.875 45.125 94.375C41.7083 89.6667 37.5208 87.3125 32.5625 87.3125C27.8542 87.3125 23.7917 89.7917 20.375 94.75C16.9167 99.7083 15.1875 105.771 15.1875 112.938ZM117.75 85.9375C118.5 88.8542 118.979 91.75 119.188 94.625C121.812 91.8333 124.75 89.6875 128 88.1875C131.292 86.6875 134.708 85.9375 138.25 85.9375C142.167 85.9375 145.438 86.9375 148.062 88.9375C149.646 90.1458 151.458 92.25 153.5 95.25C156.667 92.0417 159.854 89.6875 163.062 88.1875C166.271 86.6875 169.729 85.9375 173.438 85.9375C178.438 85.9375 182.5 87.3125 185.625 90.0625C188.792 92.7708 190.375 96.3333 190.375 100.75V121.938L190.438 126.688C190.438 129.521 190.604 131.604 190.938 132.938C191.271 134.229 191.896 135.312 192.812 136.188C194.021 137.312 196.188 138.167 199.312 138.75V140H171.75V138.75C174.25 138.417 176.021 137.958 177.062 137.375C178.146 136.75 179.042 135.708 179.75 134.25C180.208 133.292 180.521 131.854 180.688 129.938C180.896 127.979 181 125.188 181 121.562V109.625C181 105 180.854 101.625 180.562 99.5C180.271 97.375 179.708 95.5625 178.875 94.0625C176.917 90.5208 173.542 88.75 168.75 88.75C163.583 88.75 159.833 90.6667 157.5 94.5C155.458 97.7917 154.438 102.917 154.438 109.875V121.938L154.5 126.688C154.5 129.521 154.667 131.604 155 132.938C155.333 134.229 155.958 135.312 156.875 136.188C158.042 137.312 160.208 138.167 163.375 138.75V140H135.812V138.75C138.312 138.417 140.083 137.958 141.125 137.375C142.208 136.75 143.104 135.708 143.812 134.25C144.271 133.292 144.583 131.854 144.75 129.938C144.958 127.979 145.062 125.188 145.062 121.562V110C145.062 105.125 144.896 101.562 144.562 99.3125C144.271 97.0208 143.688 95.1667 142.812 93.75C141.896 92.25 140.604 91.0833 138.938 90.25C137.271 89.375 135.396 88.9375 133.312 88.9375C130.938 88.9375 128.708 89.5 126.625 90.625C124.542 91.75 122.896 93.2708 121.688 95.1875C120.562 96.8958 119.75 98.9583 119.25 101.375C118.792 103.75 118.562 106.833 118.562 110.625V122.062L118.625 126.688C118.625 129.521 118.792 131.604 119.125 132.938C119.458 134.229 120.104 135.312 121.062 136.188C122.229 137.312 124.375 138.167 127.5 138.75V140H99.9375V138.75C102.438 138.417 104.229 137.958 105.312 137.375C106.396 136.75 107.271 135.708 107.938 134.25C108.396 133.292 108.708 131.854 108.875 129.938C109.083 127.979 109.188 125.167 109.188 121.5V106.062C109.188 101.771 109.083 98.7708 108.875 97.0625C108.667 95.3125 108.208 93.8958 107.5 92.8125C106.792 91.6458 105.938 90.8125 104.938 90.3125C103.938 89.7708 102.5 89.4375 100.625 89.3125V88.0625L117.75 85.9375ZM220.062 85.8125C220.646 88.2292 220.938 90.4792 220.938 92.5625V93.5625C226.104 88.4792 232.25 85.9375 239.375 85.9375C244.708 85.9375 249 87.1875 252.25 89.6875C255.458 92.1458 257.062 95.6458 257.062 100.188V126.688C257.062 129.521 257.229 131.604 257.562 132.938C257.896 134.229 258.542 135.312 259.5 136.188C260.667 137.312 262.812 138.167 265.938 138.75V140H238.375V138.75C240.875 138.417 242.667 137.958 243.75 137.375C244.833 136.75 245.708 135.708 246.375 134.25C246.833 133.292 247.146 131.854 247.312 129.938C247.521 127.979 247.625 125.188 247.625 121.562V108.312C247.625 103.771 247.458 100.438 247.125 98.3125C246.833 96.1875 246.25 94.4792 245.375 93.1875C244.417 91.7292 243.042 90.6042 241.25 89.8125C239.458 88.9792 237.479 88.5625 235.312 88.5625C232.979 88.5625 230.792 89.0208 228.75 89.9375C226.75 90.8542 225.167 92.1042 224 93.6875C222.75 95.3542 221.917 97.25 221.5 99.375C221.125 101.458 220.938 104.938 220.938 109.812V122.062L221 126.688C221 129.521 221.167 131.604 221.5 132.938C221.833 134.229 222.479 135.312 223.438 136.188C224.604 137.312 226.75 138.167 229.875 138.75V140H202.312V138.75C204.812 138.417 206.604 137.958 207.688 137.375C208.771 136.75 209.646 135.708 210.312 134.25C210.771 133.292 211.083 131.854 211.25 129.938C211.458 127.979 211.562 125.167 211.562 121.5V106.062C211.562 101.771 211.458 98.7708 211.25 97.0625C211.042 95.3125 210.583 93.8958 209.875 92.8125C209.167 91.6458 208.312 90.8125 207.312 90.3125C206.312 89.7708 204.875 89.4375 203 89.3125V88.0625L220.062 85.8125ZM269.625 88.0625L287.562 85.8125V121.938L287.625 126.688C287.625 129.521 287.792 131.604 288.125 132.938C288.458 134.229 289.104 135.312 290.062 136.188C291.229 137.312 293.375 138.167 296.5 138.75V140H268.938V138.75C271.438 138.417 273.229 137.958 274.312 137.375C275.396 136.75 276.271 135.708 276.938 134.25C277.396 133.292 277.708 131.854 277.875 129.938C278.083 127.979 278.188 125.167 278.188 121.5V106.062C278.188 101.771 278.083 98.7708 277.875 97.0625C277.667 95.3125 277.208 93.8958 276.5 92.8125C275.792 91.6458 274.938 90.8125 273.938 90.3125C272.938 89.7708 271.5 89.4375 269.625 89.3125V88.0625ZM282.625 63.5C281 63.5 279.646 62.9792 278.562 61.9375C277.521 60.8958 277 59.5833 277 58C277 56.4583 277.542 55.1667 278.625 54.125C279.708 53.0417 281.042 52.5 282.625 52.5C284.208 52.5 285.542 53.0417 286.625 54.125C287.708 55.1667 288.25 56.4583 288.25 58C288.25 59.5833 287.708 60.8958 286.625 61.9375C285.583 62.9792 284.25 63.5 282.625 63.5ZM313.125 106C312.958 108.042 312.875 109.521 312.875 110.438C312.875 114.062 313.396 117.604 314.438 121.062C315.521 124.521 316.979 127.396 318.812 129.688C320.688 132.021 323 133.854 325.75 135.188C328.542 136.521 331.458 137.188 334.5 137.188C336.75 137.188 338.875 136.812 340.875 136.062C342.917 135.312 344.604 134.271 345.938 132.938C347.438 131.479 348.729 129.146 349.812 125.938L351.062 126.375C349.979 131.25 347.646 134.938 344.062 137.438C340.521 139.896 335.792 141.125 329.875 141.125C324.75 141.125 320.354 140.312 316.688 138.688C313.021 137.062 309.917 134.562 307.375 131.188C303.833 126.479 302.062 120.688 302.062 113.812C302.062 104.438 305.417 97.0833 312.125 91.75C317 87.875 322.562 85.9375 328.812 85.9375C332.146 85.9375 335.229 86.5417 338.062 87.75C340.896 88.9167 343.292 90.625 345.25 92.875C348.292 96.375 349.812 100.75 349.812 106H313.125ZM340.5 103.562C340.208 99.3958 339.438 96.1875 338.188 93.9375C337.062 91.8958 335.562 90.2917 333.688 89.125C331.812 87.9167 329.812 87.3125 327.688 87.3125C324.104 87.3125 320.958 88.8542 318.25 91.9375C315.583 95.0208 314 98.8958 313.5 103.562H340.5Z" fill="#222222"/>
<ellipse cx="371.5" cy="19.5" rx="18.5" ry="19.5" fill="#E25529"/>
<ellipse cx="92.5" cy="230.5" rx="18.5" ry="19.5" fill="#E25529"/>
</svg>
