<svg width="581" height="132" viewBox="0 0 581 132" fill="none" xmlns="http://www.w3.org/2000/svg">
<ellipse cx="487.5" cy="90.5" rx="18.5" ry="19.5" fill="#E25529"/>
<ellipse cx="18.5" cy="90.5" rx="18.5" ry="19.5" fill="#E25529"/>
<ellipse cx="116.5" cy="19.5" rx="18.5" ry="19.5" fill="#E25529"/>
<path d="M75.3125 84.75L86.6875 72.3125C89.0208 69.6875 90.5833 67.75 91.375 66.5C92.1667 65.2083 92.5625 63.9167 92.5625 62.625C92.5625 60.8333 91.6458 59.5833 89.8125 58.875C89.0208 58.5417 87.5417 58.3125 85.375 58.1875V56.875H109.438V58.1875C106.396 58.1875 103.938 58.7083 102.062 59.75C100.188 60.7917 97.7292 62.9583 94.6875 66.25L92.1875 69.0625L85.375 76.375L101.5 94.5C102.833 95.9583 103.708 96.8958 104.125 97.3125L106.938 100.188C109.188 102.438 110.812 103.979 111.812 104.812C112.812 105.646 114 106.438 115.375 107.188C116.958 108.021 119 108.542 121.5 108.75V110H92.1875V108.75C93.9375 108.583 95.1667 108.292 95.875 107.875C96.875 107.25 97.375 106.375 97.375 105.25C97.375 104.042 96.7708 102.771 95.5625 101.438L94.25 99.9375L79.125 83.1875L75.3125 87.375V91.9375L75.375 96.6875C75.375 99.5208 75.5417 101.604 75.875 102.938C76.2083 104.229 76.8542 105.312 77.8125 106.188C78.9792 107.312 81.125 108.167 84.25 108.75V110H56.6875V108.75C59.1875 108.417 60.9792 107.958 62.0625 107.375C63.1458 106.75 64.0208 105.708 64.6875 104.25C65.1458 103.292 65.4583 101.854 65.625 99.9375C65.8333 97.9792 65.9375 95.1667 65.9375 91.5V42.4375C65.9375 38.1875 65.8333 35.1875 65.625 33.4375C65.4167 31.6875 64.9583 30.2708 64.25 29.1875C63.5417 28.0208 62.6875 27.1875 61.6875 26.6875C60.6875 26.1875 59.25 25.875 57.375 25.75V24.4375L75.3125 22.1875V84.75ZM122.812 83.625C122.812 76.875 125.312 70.8542 130.312 65.5625C136.396 59.1458 143.667 55.9375 152.125 55.9375C160.583 55.9375 167.833 59.1458 173.875 65.5625C178.875 70.8958 181.375 76.9375 181.375 83.6875C181.375 90.3542 179 96.2917 174.25 101.5C168.417 107.917 161.042 111.125 152.125 111.125C143.208 111.125 135.812 107.917 129.938 101.5C127.646 99 125.875 96.2083 124.625 93.125C123.417 90.0417 122.812 86.875 122.812 83.625ZM134.188 82.9375C134.188 90.1875 135.812 96.3333 139.062 101.375C142.729 107 147.208 109.812 152.5 109.812C154.75 109.812 156.938 109.188 159.062 107.938C161.188 106.688 163.021 104.938 164.562 102.688C166.188 100.354 167.5 97.4375 168.5 93.9375C169.5 90.3958 170 86.9792 170 83.6875C170 80.2708 169.458 76.8333 168.375 73.375C167.333 69.875 165.917 66.875 164.125 64.375C160.708 59.6667 156.521 57.3125 151.562 57.3125C146.854 57.3125 142.792 59.7917 139.375 64.75C135.917 69.7083 134.188 75.7708 134.188 82.9375ZM204.688 55.8125C205.271 58.2292 205.562 60.4792 205.562 62.5625V63.5625C210.729 58.4792 216.875 55.9375 224 55.9375C229.333 55.9375 233.625 57.1875 236.875 59.6875C240.083 62.1458 241.688 65.6458 241.688 70.1875V96.6875C241.688 99.5208 241.854 101.604 242.188 102.938C242.521 104.229 243.167 105.312 244.125 106.188C245.292 107.312 247.438 108.167 250.562 108.75V110H223V108.75C225.5 108.417 227.292 107.958 228.375 107.375C229.458 106.75 230.333 105.708 231 104.25C231.458 103.292 231.771 101.854 231.938 99.9375C232.146 97.9792 232.25 95.1875 232.25 91.5625V78.3125C232.25 73.7708 232.083 70.4375 231.75 68.3125C231.458 66.1875 230.875 64.4792 230 63.1875C229.042 61.7292 227.667 60.6042 225.875 59.8125C224.083 58.9792 222.104 58.5625 219.938 58.5625C217.604 58.5625 215.417 59.0208 213.375 59.9375C211.375 60.8542 209.792 62.1042 208.625 63.6875C207.375 65.3542 206.542 67.25 206.125 69.375C205.75 71.4583 205.562 74.9375 205.562 79.8125V92.0625L205.625 96.6875C205.625 99.5208 205.792 101.604 206.125 102.938C206.458 104.229 207.104 105.312 208.062 106.188C209.229 107.312 211.375 108.167 214.5 108.75V110H186.938V108.75C189.438 108.417 191.229 107.958 192.312 107.375C193.396 106.75 194.271 105.708 194.938 104.25C195.396 103.292 195.708 101.854 195.875 99.9375C196.083 97.9792 196.188 95.1667 196.188 91.5V76.0625C196.188 71.7708 196.083 68.7708 195.875 67.0625C195.667 65.3125 195.208 63.8958 194.5 62.8125C193.792 61.6458 192.938 60.8125 191.938 60.3125C190.938 59.7708 189.5 59.4375 187.625 59.3125V58.0625L204.688 55.8125ZM269.688 56.875H285.625V59.25H269.688V95.625C269.688 100 270.438 103.125 271.938 105C272.729 106.042 273.771 106.854 275.062 107.438C276.354 108.021 277.75 108.312 279.25 108.312C281.125 108.312 282.688 107.938 283.938 107.188C285.188 106.396 286.562 104.979 288.062 102.938L289 103.75C287.625 106.25 285.688 108.104 283.188 109.312C280.729 110.521 277.646 111.125 273.938 111.125C269.021 111.125 265.438 110.167 263.188 108.25C261.979 107.25 261.188 106.062 260.812 104.688C260.438 103.271 260.25 100.75 260.25 97.125V59.25H253.562V58.25C256.271 57.375 258.771 55.6875 261.062 53.1875C262.438 51.6458 263.542 50.125 264.375 48.625C265.208 47.0833 266 45.1042 266.75 42.6875L267.375 40.625H269.688V56.875ZM340.25 103.938L341.312 104.562C339.812 108.938 336.375 111.125 331 111.125C328.042 111.125 325.583 110.396 323.625 108.938C322.333 107.979 321 106.312 319.625 103.938C316.833 106.438 314.729 108.083 313.312 108.875C310.604 110.375 307.458 111.125 303.875 111.125C299.292 111.125 295.646 110.021 292.938 107.812C290.271 105.604 288.938 102.625 288.938 98.875C288.938 95.4167 290.042 92.5208 292.25 90.1875C293.5 88.8958 294.938 87.875 296.562 87.125C298.188 86.3333 300.542 85.5417 303.625 84.75C307.25 83.8333 309.917 83.0625 311.625 82.4375C313.375 81.8125 314.833 81.0625 316 80.1875C317.333 79.2292 318.25 78.1042 318.75 76.8125C319.25 75.5208 319.5 73.7292 319.5 71.4375C319.5 66.5625 318.583 63 316.75 60.75C315.917 59.7083 314.833 58.875 313.5 58.25C312.208 57.625 310.854 57.3125 309.438 57.3125C307.729 57.3125 306.208 57.75 304.875 58.625C303.542 59.5 302.542 60.7083 301.875 62.25L300.312 65.875C299.479 67.8333 297.979 68.8125 295.812 68.8125C294.396 68.8125 293.208 68.3542 292.25 67.4375C291.292 66.4792 290.812 65.2917 290.812 63.875C290.812 61.75 292.312 59.9583 295.312 58.5C296.938 57.75 298.938 57.1458 301.312 56.6875C303.729 56.1875 306.083 55.9375 308.375 55.9375C310.958 55.9375 313.646 56.2708 316.438 56.9375C319.229 57.6042 321.562 58.4583 323.438 59.5C326.146 61.0417 327.833 63.0417 328.5 65.5C328.833 66.75 329 68.8542 329 71.8125V94.9375C329 98.8542 329.167 101.521 329.5 102.938C330.208 105.896 331.917 107.375 334.625 107.375C335.917 107.375 336.917 107.146 337.625 106.688C338.375 106.229 339.25 105.312 340.25 103.938ZM319.625 79.3125C317.375 81.1875 314.896 82.8333 312.188 84.25C309.146 85.875 307.042 87.1042 305.875 87.9375C304.708 88.7708 303.646 89.7708 302.688 90.9375C300.729 93.3542 299.75 96.1667 299.75 99.375C299.75 102.125 300.5 104.396 302 106.188C303.542 107.979 305.479 108.875 307.812 108.875C309.854 108.875 311.771 108.25 313.562 107C315.396 105.708 316.771 104 317.688 101.875C318.979 99.0833 319.625 95.0417 319.625 89.75V79.3125ZM360.062 84.75L371.438 72.3125C373.771 69.6875 375.333 67.75 376.125 66.5C376.917 65.2083 377.312 63.9167 377.312 62.625C377.312 60.8333 376.396 59.5833 374.562 58.875C373.771 58.5417 372.292 58.3125 370.125 58.1875V56.875H394.188V58.1875C391.146 58.1875 388.688 58.7083 386.812 59.75C384.938 60.7917 382.479 62.9583 379.438 66.25L376.938 69.0625L370.125 76.375L386.25 94.5C387.583 95.9583 388.458 96.8958 388.875 97.3125L391.688 100.188C393.938 102.438 395.562 103.979 396.562 104.812C397.562 105.646 398.75 106.438 400.125 107.188C401.708 108.021 403.75 108.542 406.25 108.75V110H376.938V108.75C378.688 108.583 379.917 108.292 380.625 107.875C381.625 107.25 382.125 106.375 382.125 105.25C382.125 104.042 381.521 102.771 380.312 101.438L379 99.9375L363.875 83.1875L360.062 87.375V91.9375L360.125 96.6875C360.125 99.5208 360.292 101.604 360.625 102.938C360.958 104.229 361.604 105.312 362.562 106.188C363.729 107.312 365.875 108.167 369 108.75V110H341.438V108.75C343.938 108.417 345.729 107.958 346.812 107.375C347.896 106.75 348.771 105.708 349.438 104.25C349.896 103.292 350.208 101.854 350.375 99.9375C350.583 97.9792 350.688 95.1667 350.688 91.5V42.4375C350.688 38.1875 350.583 35.1875 350.375 33.4375C350.167 31.6875 349.708 30.2708 349 29.1875C348.292 28.0208 347.438 27.1875 346.438 26.6875C345.438 26.1875 344 25.875 342.125 25.75V24.4375L360.062 22.1875V84.75ZM421.562 56.875H437.5V59.25H421.562V95.625C421.562 100 422.312 103.125 423.812 105C424.604 106.042 425.646 106.854 426.938 107.438C428.229 108.021 429.625 108.312 431.125 108.312C433 108.312 434.562 107.938 435.812 107.188C437.062 106.396 438.438 104.979 439.938 102.938L440.875 103.75C439.5 106.25 437.562 108.104 435.062 109.312C432.604 110.521 429.521 111.125 425.812 111.125C420.896 111.125 417.312 110.167 415.062 108.25C413.854 107.25 413.062 106.062 412.688 104.688C412.312 103.271 412.125 100.75 412.125 97.125V59.25H405.438V58.25C408.146 57.375 410.646 55.6875 412.938 53.1875C414.312 51.6458 415.417 50.125 416.25 48.625C417.083 47.0833 417.875 45.1042 418.625 42.6875L419.25 40.625H421.562V56.875Z" fill="#222222"/>
</svg>
