<svg width="618" height="90" viewBox="0 0 618 90" fill="none" xmlns="http://www.w3.org/2000/svg">
<circle cx="25.5" cy="25.5" r="25.5" fill="#E25529"/>
<path d="M31.1855 34.1922L31.5165 34.3892C31.0409 35.754 29.9632 36.4322 28.2836 36.4237C27.3591 36.419 26.592 36.1873 25.9824 35.7285C25.5802 35.427 25.1662 34.9041 24.7402 34.1597C23.8639 34.9366 23.2038 35.4476 22.7598 35.6927C21.9111 36.1572 20.9269 36.3866 19.8071 36.381C18.3748 36.3738 17.2373 36.023 16.3944 35.3286C15.5646 34.6343 15.1526 33.7012 15.1585 32.5294C15.164 31.4486 15.5136 30.5454 16.2073 29.8198C16.6 29.4181 17.0508 29.1014 17.5598 28.8695C18.0689 28.6247 18.8058 28.381 19.7705 28.1385C20.9048 27.8578 21.7393 27.6211 22.2742 27.4285C22.822 27.2359 23.2789 27.0038 23.6449 26.7322C24.063 26.4349 24.3513 26.0847 24.5095 25.6819C24.6678 25.279 24.7488 24.7195 24.7524 24.0034C24.7601 22.48 24.4792 21.3653 23.9099 20.6593C23.6511 20.3324 23.3139 20.0703 22.8982 19.8729C22.4955 19.6756 22.0729 19.5758 21.6302 19.5735C21.0963 19.5709 20.6204 19.7052 20.2023 19.9765C19.7843 20.2478 19.4699 20.6239 19.2591 21.1046L18.7651 22.2349C18.5016 22.8456 18.0314 23.1492 17.3543 23.1458C16.9116 23.1435 16.5412 22.9985 16.2432 22.7105C15.9452 22.4095 15.7973 22.0377 15.7996 21.595C15.8029 20.9309 16.2745 20.3734 17.2143 19.9224C17.7233 19.6906 18.3492 19.5049 19.0921 19.3654C19.8481 19.213 20.5842 19.1386 21.3003 19.1422C22.1076 19.1463 22.9469 19.2547 23.8182 19.4674C24.6895 19.6801 25.4174 19.9507 26.0017 20.2792C26.8456 20.7652 27.3698 21.3929 27.5742 22.1621C27.6764 22.5533 27.7252 23.2111 27.7205 24.1356L27.6841 31.362C27.6779 32.586 27.7258 33.4196 27.8277 33.8628C28.0444 34.7884 28.5759 35.2533 29.4223 35.2576C29.8259 35.2596 30.1388 35.1896 30.3608 35.0474C30.5959 34.9054 30.8708 34.6203 31.1855 34.1922ZM24.779 26.4645C24.073 27.0469 23.2957 27.5573 22.4471 27.9957C21.494 28.4987 20.8345 28.8795 20.4686 29.1381C20.1027 29.3967 19.7691 29.7075 19.4678 30.0706C18.8521 30.8227 18.5416 31.7001 18.5366 32.7026C18.5322 33.562 18.763 34.2728 19.229 34.8351C19.7079 35.3974 20.312 35.6804 21.0411 35.6841C21.6791 35.6873 22.2791 35.495 22.8409 35.1072C23.4159 34.7064 23.8482 34.1748 24.138 33.5121C24.5461 32.6418 24.7543 31.3798 24.7626 29.7262L24.779 26.4645ZM37.407 28.2274L40.9813 24.3587C41.7146 23.542 42.2059 22.939 42.4553 22.5497C42.7047 22.1473 42.8304 21.7443 42.8325 21.3406C42.8353 20.7807 42.5508 20.3887 41.979 20.1644C41.7321 20.059 41.2703 19.9851 40.5934 19.9426L40.5954 19.5324L48.1149 19.5703L48.1128 19.9805C47.1623 19.9757 46.3933 20.1346 45.8057 20.4572C45.2181 20.7797 44.4465 21.4529 43.4908 22.4768L42.7051 23.3517L40.5647 25.6261L45.5752 31.3155C45.9895 31.7733 46.2615 32.0677 46.391 32.1985L47.2654 33.1014C47.965 33.8081 48.4704 34.2924 48.7815 34.5544C49.0927 34.8164 49.4626 35.0656 49.8911 35.3022C50.3845 35.5651 51.0217 35.731 51.8026 35.8001L51.8007 36.1907L42.6406 36.1445L42.6426 35.7539C43.1897 35.7046 43.5743 35.6154 43.7963 35.4863C44.1098 35.2925 44.2674 35.0199 44.2692 34.6683C44.2711 34.2907 44.0843 33.8927 43.7088 33.4741L43.301 33.0033L38.6009 27.7451L37.4029 29.0477L37.3957 30.4735L37.4078 31.9579C37.4033 32.8433 37.4521 33.4946 37.5542 33.9118C37.6563 34.316 37.8564 34.6555 38.1545 34.9305C38.5173 35.2839 39.1865 35.5542 40.1622 35.7414L40.1602 36.132L31.547 36.0886L31.549 35.698C32.3308 35.5977 32.8914 35.4573 33.2308 35.2768C33.5703 35.0832 33.8454 34.759 34.056 34.3043C34.2008 34.0056 34.3007 33.5569 34.3558 32.9582C34.424 32.3465 34.461 31.4678 34.4668 30.322L34.544 14.9902C34.5507 13.662 34.5229 12.7244 34.4606 12.1772C34.3982 11.63 34.2572 11.1866 34.0376 10.8469C33.8181 10.4812 33.5525 10.2195 33.2408 10.0616C32.929 9.90382 32.4803 9.8039 31.8946 9.76188L31.8967 9.35173L37.5056 8.67688L37.407 28.2274ZM52.8944 36.1962L52.9223 30.6689L53.2348 30.6705C53.5925 32.0265 54.0428 33.1095 54.5856 33.9196C55.5808 35.3959 56.7489 36.1375 58.09 36.1443C58.9103 36.1484 59.6212 35.9046 60.2227 35.4128C60.8765 34.8693 61.2059 34.0962 61.2109 33.0936C61.2151 32.2733 60.9843 31.556 60.5186 30.9416C60.2599 30.6148 59.9294 30.3136 59.5271 30.0382C59.1379 29.7628 58.4757 29.3753 57.5407 28.8758C55.9045 27.9951 54.8145 27.2605 54.2706 26.6718C53.4935 25.8345 53.1078 24.869 53.1133 23.7753C53.1192 22.6034 53.5149 21.5963 54.3004 20.7539C55.2037 19.7949 56.3975 19.3191 57.8819 19.3266C58.5459 19.33 59.1638 19.4503 59.7355 19.6875L60.3981 19.9838C60.606 20.063 60.7881 20.103 60.9444 20.1038C61.1918 20.105 61.4271 19.9109 61.6505 19.5214L62.0411 19.5234L62.2336 23.958L61.8234 23.9559C61.6833 23.3302 61.5296 22.8281 61.3623 22.4497C61.2079 22.0713 60.9819 21.7056 60.6842 21.3525C60.283 20.8557 59.8162 20.4692 59.2838 20.1931C58.7514 19.9039 58.2247 19.758 57.7039 19.7554C56.9748 19.7517 56.3484 20.0155 55.8249 20.5467C55.3145 21.065 55.0573 21.7082 55.0534 22.4765C55.0502 23.1145 55.2752 23.695 55.7283 24.2182C56.1944 24.7283 56.9082 25.2007 57.8696 25.6352L59.9351 26.5831C61.1693 27.1493 62.0902 27.8505 62.698 28.6869C63.3058 29.5234 63.6068 30.508 63.6011 31.6408C63.5942 33.0079 63.1458 34.1385 62.2559 35.0325C61.235 36.069 59.9303 36.5833 58.3418 36.5752C57.4824 36.5709 56.6109 36.3972 55.7272 36.0542C55.1554 35.83 54.811 35.7046 54.6939 35.6779C54.5769 35.6383 54.4273 35.618 54.245 35.6171C53.7893 35.6148 53.4432 35.8084 53.2069 36.1978L52.8944 36.1962ZM65.9839 20.0315L71.5928 19.3567L71.5359 30.6456L71.548 32.13C71.5435 33.0155 71.5923 33.6667 71.6944 34.0839C71.7965 34.4881 71.9966 34.8277 72.2947 35.1026C72.6575 35.456 73.3267 35.7263 74.3024 35.9135L74.3004 36.3041L65.6872 36.2607L65.6892 35.8701C66.4709 35.7699 67.0316 35.6295 67.371 35.4489C67.7105 35.2553 67.9856 34.9311 68.1962 34.4765C68.341 34.1777 68.4409 33.729 68.496 33.1303C68.5642 32.5187 68.6012 31.6399 68.6069 30.4941L68.6313 25.6699C68.638 24.3288 68.6102 23.3912 68.5478 22.857C68.4854 22.3098 68.3444 21.8664 68.1248 21.5267C67.9053 21.161 67.6397 20.8993 67.328 20.7414C67.0163 20.5706 66.5676 20.4642 65.9819 20.4221L65.9839 20.0315ZM70.085 12.3763C69.5772 12.3738 69.1549 12.2089 68.818 11.8817C68.4941 11.5545 68.3334 11.1435 68.3359 10.6487C68.3383 10.167 68.5096 9.76418 68.8498 9.44037C69.1901 9.10354 69.6076 8.93638 70.1024 8.93887C70.5971 8.94136 71.0129 9.11273 71.3498 9.45298C71.6867 9.7802 71.8539 10.1847 71.8515 10.6665C71.849 11.1612 71.6776 11.5705 71.3375 11.8944C71.0103 12.2182 70.5928 12.3789 70.085 12.3763ZM89.4352 36.7125C89.2699 35.9304 89.1893 35.1292 89.1934 34.3089C87.5577 35.9152 85.6266 36.7128 83.4001 36.7016C81.7725 36.6934 80.4659 36.2896 79.4803 35.4904C78.5207 34.7043 78.0446 33.5951 78.0518 32.1628L78.086 25.366L78.074 23.8816C78.0785 22.9962 78.0296 22.3514 77.9275 21.9472C77.8254 21.5431 77.6318 21.197 77.3468 20.9091C76.971 20.5557 76.2952 20.2919 75.3195 20.1177L75.3216 19.7075L81.0441 19.7364L80.9942 29.6386C80.9872 31.0318 81.0276 32.0672 81.1153 32.7447C81.2161 33.4093 81.3956 33.9571 81.6539 34.3881C81.9381 34.8322 82.3465 35.1858 82.879 35.4489C83.4116 35.699 84.0099 35.8257 84.674 35.8291C85.4032 35.8328 86.0875 35.693 86.7269 35.4097C87.3664 35.1265 87.8696 34.7384 88.2367 34.2455C88.6169 33.7396 88.8672 33.1549 88.9878 32.4914C89.1213 31.828 89.1919 30.7346 89.1996 29.2112L89.2189 25.3831L89.2067 23.9377C89.2111 23.0523 89.1623 22.4075 89.0602 22.0034C88.9711 21.5993 88.7775 21.2532 88.4795 20.9653C88.1166 20.6119 87.4409 20.348 86.4522 20.1738L86.4542 19.7636L92.1768 19.7925L92.1234 30.3978C92.1166 31.7389 92.1444 32.6831 92.2067 33.2303C92.2822 33.7645 92.4232 34.2015 92.6298 34.541C92.8623 34.9068 93.1344 35.1751 93.4461 35.346C93.7578 35.5038 94.2065 35.6037 94.7922 35.6457L94.7903 36.0363L89.4352 36.7125ZM97.1907 36.4195L97.2186 30.8923L97.5311 30.8938C97.8888 32.2498 98.3391 33.3328 98.8819 34.1429C99.8771 35.6193 101.045 36.3608 102.386 36.3676C103.207 36.3717 103.918 36.1279 104.519 35.6362C105.173 35.0926 105.502 34.3195 105.507 33.3169C105.511 32.4966 105.281 31.7793 104.815 31.1649C104.556 30.8381 104.226 30.537 103.823 30.2615C103.434 29.9861 102.772 29.5986 101.837 29.0991C100.201 28.2185 99.1108 27.4838 98.5669 26.8951C97.7898 26.0578 97.4041 25.0923 97.4096 23.9986C97.4155 22.8267 97.8112 21.8196 98.5967 20.9772C99.5 20.0182 100.694 19.5424 102.178 19.5499C102.842 19.5533 103.46 19.6736 104.032 19.9108L104.694 20.2072C104.902 20.2863 105.084 20.3263 105.241 20.3271C105.488 20.3283 105.723 20.1342 105.947 19.7447L106.337 19.7467L106.53 24.1813L106.12 24.1792C105.98 23.5535 105.826 23.0514 105.659 22.673C105.504 22.2946 105.278 21.9289 104.98 21.5758C104.579 21.079 104.113 20.6925 103.58 20.4164C103.048 20.1272 102.521 19.9814 102 19.9787C101.271 19.9751 100.645 20.2388 100.121 20.77C99.6108 21.2883 99.3536 21.9316 99.3498 22.6998C99.3465 23.3378 99.5715 23.9184 100.025 24.4415C100.491 24.9517 101.205 25.424 102.166 25.8585L104.231 26.8065C105.466 27.3726 106.387 28.0739 106.994 28.9103C107.602 29.7467 107.903 30.7313 107.897 31.8641C107.891 33.2312 107.442 34.3618 106.552 35.2558C105.531 36.2923 104.227 36.8066 102.638 36.7986C101.779 36.7942 100.907 36.6206 100.023 36.2776C99.4517 36.0533 99.1073 35.9279 98.9902 35.9013C98.8732 35.8616 98.7236 35.8413 98.5413 35.8404C98.0856 35.8381 97.7396 36.0317 97.5032 36.4211L97.1907 36.4195ZM111.61 19.8905L124.657 19.9562L124.655 20.3664L113.678 35.9753L116.314 35.9886C117.812 35.9961 119.042 35.9307 120.007 35.7924C120.971 35.654 121.727 35.4365 122.276 35.1397C123.333 34.5591 124.113 33.5149 124.616 32.007L125.006 32.0675L124.573 36.5576L109.984 36.484L109.985 36.0934L120.963 20.465L116.686 20.4434C115.644 20.4381 114.836 20.5317 114.262 20.7242C113.701 20.9166 113.198 21.2592 112.753 21.7517C112.334 22.2314 111.933 22.9911 111.55 24.0308L111.179 23.9899L111.61 19.8905ZM131.898 28.7038L135.472 24.835C136.206 24.0184 136.697 23.4154 136.946 23.026C137.196 22.6236 137.321 22.2206 137.323 21.817C137.326 21.2571 137.042 20.865 136.47 20.6408C136.223 20.5354 135.761 20.4614 135.084 20.419L135.086 20.0088L142.606 20.0467L142.604 20.4569C141.653 20.4521 140.884 20.611 140.297 20.9335C139.709 21.2561 138.937 21.9293 137.982 22.9531L137.196 23.8281L135.056 26.1025L140.066 31.7919C140.481 32.2497 140.752 32.544 140.882 32.6749L141.756 33.5778C142.456 34.2844 142.961 34.7688 143.273 35.0307C143.584 35.2927 143.954 35.542 144.382 35.7785C144.876 36.0414 145.513 36.2074 146.294 36.2765L146.292 36.6671L137.132 36.6209L137.134 36.2303C137.681 36.181 138.065 36.0917 138.287 35.9627C138.601 35.7689 138.758 35.4963 138.76 35.1447C138.762 34.7671 138.575 34.369 138.2 33.9505L137.792 33.4797L133.092 28.2215L131.894 29.5241L131.887 30.9499L131.899 32.4343C131.894 33.3197 131.943 33.971 132.045 34.3882C132.147 34.7924 132.347 35.1319 132.645 35.4069C133.008 35.7603 133.678 36.0306 134.653 36.2178L134.651 36.6084L126.038 36.565L126.04 36.1743C126.822 36.0741 127.382 35.9337 127.722 35.7531C128.061 35.5595 128.336 35.2354 128.547 34.7807C128.692 34.482 128.792 34.0332 128.847 33.4346C128.915 32.8229 128.952 31.9442 128.958 30.7984L129.035 15.4665C129.042 14.1384 129.014 13.2008 128.952 12.6536C128.889 12.1064 128.748 11.663 128.529 11.3233C128.309 10.9576 128.043 10.6958 127.732 10.538C127.42 10.3802 126.971 10.2803 126.386 10.2383L126.388 9.82811L131.997 9.15325L131.898 28.7038ZM162.746 34.8555L163.077 35.0525C162.602 36.4173 161.524 37.0954 159.844 37.087C158.92 37.0823 158.153 36.8506 157.543 36.3918C157.141 36.0903 156.727 35.5673 156.301 34.823C155.425 35.5998 154.765 36.1108 154.321 36.356C153.472 36.8205 152.488 37.0499 151.368 37.0442C149.936 37.037 148.798 36.6862 147.955 35.9919C147.125 35.2976 146.713 34.3645 146.719 33.1926C146.725 32.1119 147.074 31.2087 147.768 30.483C148.161 30.0814 148.612 29.7646 149.121 29.5328C149.63 29.288 150.367 29.0443 151.331 28.8018C152.466 28.521 153.3 28.2843 153.835 28.0917C154.383 27.8992 154.84 27.6671 155.206 27.3955C155.624 27.0981 155.912 26.748 156.07 26.3452C156.229 25.9423 156.31 25.3828 156.313 24.6667C156.321 23.1432 156.04 22.0285 155.471 21.3225C155.212 20.9957 154.875 20.7336 154.459 20.5362C154.056 20.3388 153.634 20.239 153.191 20.2368C152.657 20.2341 152.181 20.3684 151.763 20.6398C151.345 20.9111 151.031 21.2871 150.82 21.7678L150.326 22.8982C150.062 23.5088 149.592 23.8125 148.915 23.809C148.472 23.8068 148.102 23.6617 147.804 23.3738C147.506 23.0728 147.358 22.7009 147.36 22.2582C147.364 21.5942 147.835 21.0366 148.775 20.5856C149.284 20.3538 149.91 20.1682 150.653 20.0287C151.409 19.8763 152.145 19.8018 152.861 19.8055C153.668 19.8095 154.508 19.9179 155.379 20.1306C156.25 20.3434 156.978 20.614 157.562 20.9424C158.406 21.4285 158.931 22.0561 159.135 22.8254C159.237 23.2165 159.286 23.8744 159.281 24.7988L159.245 32.0253C159.239 33.2492 159.287 34.0828 159.389 34.526C159.605 35.4516 160.137 35.9166 160.983 35.9208C161.387 35.9229 161.7 35.8528 161.922 35.7107C162.157 35.5687 162.432 35.2836 162.746 34.8555ZM156.34 27.1278C155.634 27.7102 154.856 28.2206 154.008 28.659C153.055 29.162 152.395 29.5428 152.029 29.8014C151.664 30.06 151.33 30.3708 151.029 30.7339C150.413 31.486 150.102 32.3633 150.097 33.3659C150.093 34.2253 150.324 34.9361 150.79 35.4983C151.269 36.0607 151.873 36.3436 152.602 36.3473C153.24 36.3505 153.84 36.1583 154.402 35.7705C154.977 35.3697 155.409 34.838 155.699 34.1754C156.107 33.3051 156.315 32.0431 156.323 30.3894L156.34 27.1278ZM187.304 37.4988C187.177 36.8602 187.115 36.1828 187.119 35.4666C186.152 36.0868 185.238 36.5314 184.377 36.8005C183.53 37.0697 182.618 37.2018 181.641 37.1969C179.662 37.1869 177.972 36.5859 176.572 35.3939C175.677 34.6342 174.992 33.6867 174.516 32.5515C174.04 31.4033 173.805 30.1521 173.812 28.7979C173.819 27.3656 174.086 26.0453 174.613 24.8371C175.14 23.6157 175.875 22.6038 176.816 21.8012C178.307 20.5587 180.074 19.9426 182.119 19.953C183.108 19.9579 183.954 20.1054 184.655 20.3954C185.357 20.6854 186.175 21.2104 187.108 21.9703L187.145 14.7243C187.152 13.3051 186.923 12.2818 186.457 11.6544C185.992 11.0271 185.219 10.7107 184.138 10.7052L184.14 10.2365L190.101 9.50478L189.987 32.1412C189.979 33.6125 190.209 34.6619 190.674 35.2892C191.14 35.9166 191.913 36.233 192.994 36.2385L192.991 36.7267L187.304 37.4988ZM187.076 28.4351C187.085 26.6252 187.014 25.2707 186.862 24.3715C186.71 23.4592 186.434 22.7156 186.033 22.1407C185.684 21.6441 185.211 21.2446 184.614 20.9421C184.029 20.6397 183.424 20.4869 182.799 20.4837C181.406 20.4767 180.199 21.1217 179.176 22.4186C178.56 23.1968 178.074 24.1253 177.717 25.2043C177.373 26.2833 177.198 27.3957 177.192 28.5415C177.187 29.6613 177.344 30.7624 177.664 31.8447C177.984 32.914 178.422 33.8342 178.978 34.6053C179.948 35.9383 181.143 36.6084 182.562 36.6156C183.239 36.619 183.884 36.453 184.498 36.1175C185.112 35.782 185.609 35.3158 185.989 34.7187C186.383 34.0957 186.661 33.3289 186.821 32.4182C186.982 31.4945 187.067 30.1668 187.076 28.4351ZM194.381 20.6788L199.99 20.004L199.933 31.2929L199.945 32.7774C199.94 33.6628 199.989 34.3141 200.091 34.7312C200.193 35.1354 200.393 35.475 200.692 35.7499C201.054 36.1033 201.724 36.3736 202.699 36.5608L202.697 36.9514L194.084 36.908L194.086 36.5174C194.868 36.4172 195.428 36.2768 195.768 36.0962C196.107 35.9026 196.382 35.5784 196.593 35.1238C196.738 34.825 196.838 34.3763 196.893 33.7776C196.961 33.166 196.998 32.2872 197.004 31.1414L197.028 26.3173C197.035 24.9761 197.007 24.0385 196.945 23.5043C196.882 22.9571 196.741 22.5137 196.522 22.174C196.302 21.8083 196.036 21.5466 195.725 21.3888C195.413 21.2179 194.964 21.1115 194.379 21.0695L194.381 20.6788ZM198.482 13.0236C197.974 13.0211 197.552 12.8562 197.215 12.529C196.891 12.2018 196.73 11.7908 196.733 11.2961C196.735 10.8143 196.906 10.4115 197.247 10.0877C197.587 9.75086 198.004 9.58369 198.499 9.58618C198.994 9.58868 199.41 9.76005 199.747 10.1003C200.083 10.4275 200.251 10.832 200.248 11.3138C200.246 11.8086 200.074 12.2179 199.734 12.5417C199.407 12.8655 198.99 13.0262 198.482 13.0236ZM208.646 38.6416L208.294 38.7375C208.074 38.3718 207.854 38.1168 207.634 37.9724C207.413 37.8281 207.14 37.7551 206.814 37.7535C206.267 37.7507 205.817 37.9568 205.464 38.3717C205.123 38.7866 204.951 39.3261 204.948 39.9902C204.942 41.0448 205.465 41.9134 206.516 42.5958C207.568 43.2782 208.914 43.6235 210.554 43.6318C212.299 43.6406 213.707 43.2701 214.779 42.5202C215.863 41.7835 216.408 40.8162 216.414 39.6183C216.419 38.6548 216.065 37.9108 215.351 37.3863C214.638 36.8749 213.617 36.6159 212.289 36.6092L209.183 36.5935C207.907 36.5871 206.88 36.2824 206.102 35.6795C205.298 35.0505 204.898 34.2997 204.902 33.4274C204.907 32.5029 205.341 31.7759 206.203 31.2464C206.647 30.9882 207.455 30.7123 208.629 30.4188C207.498 29.8922 206.623 29.2042 206.002 28.3547C205.382 27.4922 205.074 26.5466 205.079 25.518C205.086 24.2029 205.58 23.0335 206.562 22.0098C207.138 21.4007 207.817 20.9289 208.6 20.5943C209.383 20.2597 210.185 20.0944 211.005 20.0986C212.255 20.1049 213.529 20.554 214.826 21.446C215.441 20.9673 215.989 20.6315 216.472 20.4387C216.968 20.2328 217.502 20.1313 218.075 20.1342C218.713 20.1374 219.227 20.2768 219.616 20.5522C220.083 20.8931 220.315 21.3109 220.313 21.8057C220.311 22.1052 220.219 22.3586 220.036 22.566C219.852 22.7604 219.624 22.8569 219.35 22.8555C218.934 22.8534 218.557 22.6302 218.221 22.1858L217.775 21.5976C217.529 21.2838 217.178 21.1258 216.722 21.1235C216.241 21.1211 215.732 21.3594 215.195 21.8385C216.244 23.1328 216.764 24.4636 216.757 25.8308C216.749 27.5365 215.987 28.8803 214.471 29.8623C213.714 30.3533 212.898 30.6812 212.025 30.8461C211.764 30.8838 210.937 30.9447 209.544 31.0289C207.629 31.1364 206.669 31.6654 206.664 32.6159C206.66 33.4492 207.472 33.87 209.099 33.8782L212.322 33.8945C213.455 33.9002 214.411 34.0092 215.192 34.2214C215.972 34.4207 216.654 34.7366 217.238 35.1693C218.379 36.0214 218.946 37.2157 218.938 38.7521C218.93 40.4448 218.259 41.763 216.926 42.7068C215.554 43.6765 213.546 44.1547 210.903 44.1413C208.065 44.127 206.056 43.544 204.877 42.3922C204.125 41.6462 203.752 40.7198 203.758 39.6131C203.762 38.7407 204.046 37.9999 204.609 37.3908C205.172 36.7947 205.857 36.4986 206.664 36.5027C207.25 36.5056 207.725 36.6838 208.087 37.0372C208.463 37.3907 208.65 37.8539 208.647 38.4268L208.646 38.6416ZM207.852 25.6687C207.845 27.0749 208.132 28.2222 208.713 29.1106C209.308 29.999 210.067 30.4456 210.992 30.4502C211.929 30.4549 212.661 30.0224 213.186 29.1527C213.711 28.2699 213.978 27.0473 213.986 25.4848C213.994 23.8702 213.662 22.5795 212.989 21.6125C212.498 20.8939 211.862 20.5326 211.081 20.5287C210.143 20.5239 209.386 20.9889 208.808 21.9235C208.519 22.3908 208.289 22.9625 208.116 23.6388C207.943 24.315 207.855 24.9916 207.852 25.6687ZM220.552 20.8108L226.161 20.1359L226.104 31.4249L226.116 32.9093C226.112 33.7947 226.161 34.446 226.263 34.8632C226.365 35.2674 226.565 35.6069 226.863 35.8819C227.226 36.2353 227.895 36.5056 228.871 36.6928L228.869 37.0834L220.256 37.04L220.258 36.6493C221.039 36.5491 221.6 36.4087 221.939 36.2281C222.279 36.0345 222.554 35.7104 222.765 35.2557C222.909 34.957 223.009 34.5082 223.064 33.9096C223.133 33.2979 223.17 32.4192 223.175 31.2734L223.2 26.4492C223.206 25.1081 223.179 24.1704 223.116 23.6362C223.054 23.0891 222.913 22.6456 222.693 22.306C222.474 21.9403 222.208 21.6785 221.896 21.5207C221.585 21.3499 221.136 21.2434 220.55 21.2014L220.552 20.8108ZM224.653 13.1556C224.146 13.153 223.723 12.9881 223.386 12.6609C223.062 12.3338 222.902 11.9228 222.904 11.428C222.907 10.9462 223.078 10.5434 223.418 10.2196C223.758 9.8828 224.176 9.71563 224.671 9.71813C225.165 9.72062 225.581 9.89199 225.918 10.2322C226.255 10.5595 226.422 10.964 226.42 11.4457C226.417 11.9405 226.246 12.3498 225.906 12.6736C225.579 12.9975 225.161 13.1581 224.653 13.1556ZM235.066 20.5129L240.046 20.538L240.042 21.2801L235.062 21.255L235.005 32.6221C234.998 33.9893 235.227 34.967 235.693 35.5553C235.939 35.882 236.263 36.1376 236.666 36.3219C237.068 36.5062 237.504 36.5996 237.973 36.6019C238.559 36.6049 239.048 36.4902 239.439 36.2578C239.831 36.0123 240.263 35.5718 240.735 34.9362L241.027 35.1915C240.593 35.9706 239.985 36.547 239.202 36.9206C238.432 37.2944 237.467 37.4783 236.308 37.4725C234.772 37.4647 233.654 37.1596 232.953 36.5571C232.577 36.2427 232.332 35.8704 232.217 35.4401C232.102 34.9968 232.047 34.2088 232.053 33.076L232.113 21.2402L230.023 21.2296L230.024 20.9171C230.872 20.648 231.656 20.1246 232.376 19.3469C232.808 18.8673 233.156 18.3938 233.418 17.9264C233.681 17.4459 233.932 16.8287 234.17 16.0747L234.369 15.4312L235.091 15.4348L235.066 20.5129ZM257.042 35.3309L257.373 35.5279C256.897 36.8927 255.82 37.5708 254.14 37.5624C253.216 37.5577 252.449 37.326 251.839 36.8672C251.437 36.5656 251.023 36.0427 250.597 35.2984C249.72 36.0752 249.06 36.5862 248.616 36.8314C247.768 37.2959 246.783 37.5253 245.664 37.5196C244.231 37.5124 243.094 37.1616 242.251 36.4673C241.421 35.773 241.009 34.8399 241.015 33.668C241.02 32.5873 241.37 31.6841 242.064 30.9584C242.456 30.5568 242.907 30.24 243.416 30.0082C243.925 29.7634 244.662 29.5197 245.627 29.2772C246.761 28.9964 247.596 28.7597 248.131 28.5671C248.679 28.3746 249.135 28.1425 249.501 27.8709C249.92 27.5735 250.208 27.2234 250.366 26.8205C250.524 26.4177 250.605 25.8582 250.609 25.1421C250.617 23.6186 250.336 22.5039 249.766 21.7979C249.508 21.4711 249.17 21.209 248.755 21.0116C248.352 20.8142 247.929 20.7144 247.487 20.7122C246.953 20.7095 246.477 20.8438 246.059 21.1152C245.641 21.3865 245.326 21.7625 245.116 22.2432L244.622 23.3736C244.358 23.9842 243.888 24.2879 243.211 24.2844C242.768 24.2822 242.398 24.1371 242.1 23.8491C241.802 23.5482 241.654 23.1763 241.656 22.7336C241.659 22.0696 242.131 21.512 243.071 21.061C243.58 20.8292 244.206 20.6436 244.949 20.5041C245.705 20.3516 246.441 20.2772 247.157 20.2808C247.964 20.2849 248.803 20.3933 249.675 20.606C250.546 20.8188 251.274 21.0894 251.858 21.4178C252.702 21.9039 253.226 22.5315 253.431 23.3008C253.533 23.6919 253.582 24.3497 253.577 25.2742L253.541 32.5007C253.534 33.7246 253.582 34.5582 253.684 35.0014C253.901 35.927 254.432 36.3919 255.279 36.3962C255.682 36.3982 255.995 36.3282 256.217 36.1861C256.452 36.0441 256.727 35.759 257.042 35.3309ZM250.636 27.6032C249.929 28.1855 249.152 28.696 248.304 29.1344C247.351 29.6374 246.691 30.0182 246.325 30.2768C245.959 30.5354 245.626 30.8462 245.324 31.2092C244.709 31.9614 244.398 32.8387 244.393 33.8413C244.389 34.7007 244.62 35.4115 245.085 35.9737C245.564 36.536 246.168 36.819 246.898 36.8227C247.536 36.8259 248.136 36.6336 248.697 36.2458C249.272 35.8451 249.705 35.3134 249.995 34.6508C250.403 33.7805 250.611 32.5185 250.619 30.8648L250.636 27.6032ZM257.753 10.4904L263.362 9.81553L263.252 31.6121L263.264 33.0966C263.26 33.982 263.309 34.6333 263.411 35.0505C263.513 35.4546 263.713 35.7942 264.011 36.0691C264.374 36.4225 265.043 36.6928 266.019 36.8801L266.017 37.2707L257.404 37.2272L257.405 36.8366C258.187 36.7364 258.748 36.596 259.087 36.4154C259.427 36.2218 259.702 35.8977 259.913 35.443C260.057 35.1442 260.157 34.6955 260.212 34.0968C260.281 33.4852 260.317 32.6065 260.323 31.4606L260.401 16.1288C260.407 14.8007 260.379 13.863 260.317 13.3159C260.255 12.7687 260.114 12.3252 259.894 11.9856C259.675 11.6199 259.409 11.3581 259.097 11.2003C258.786 11.0425 258.337 10.9426 257.751 10.9005L257.753 10.4904ZM283.056 35.7159L283.057 39.3097L283.051 40.6574C283.046 41.5428 283.095 42.1876 283.197 42.5917C283.299 43.0089 283.499 43.3615 283.797 43.6495C284.16 44.0029 284.829 44.2666 285.805 44.4408L285.803 44.8315L277.19 44.788L277.192 44.3974C277.974 44.2972 278.534 44.1568 278.874 43.9762C279.213 43.7956 279.488 43.478 279.699 43.0233C279.844 42.7246 279.943 42.2693 279.999 41.6576C280.067 41.046 280.104 40.1738 280.11 39.041L280.178 25.545C280.185 24.0737 279.956 23.0244 279.49 22.397C279.038 21.7697 278.265 21.4533 277.171 21.4478L277.173 20.9595L282.861 20.1874C283.001 20.8131 283.07 21.3864 283.067 21.9072L283.065 22.2783C284.032 21.6321 284.939 21.1745 285.787 20.9053C286.635 20.6231 287.553 20.4845 288.543 20.4895C290.522 20.4995 292.212 21.1004 293.612 22.2924C294.494 23.0521 295.173 23.9995 295.649 25.1348C296.125 26.27 296.359 27.5212 296.352 28.8883C296.345 30.3076 296.078 31.6279 295.551 32.8492C295.037 34.0706 294.303 35.076 293.348 35.8655C291.858 37.121 290.09 37.7436 288.046 37.7333C287.069 37.7284 286.224 37.5809 285.509 37.2908C284.807 37.0008 283.99 36.4759 283.056 35.7159ZM283.089 29.2316C283.08 31.0285 283.151 32.383 283.303 33.2953C283.454 34.2075 283.73 34.9446 284.131 35.5065C284.493 36.0031 284.967 36.4027 285.551 36.7051C286.148 37.0076 286.753 37.1604 287.365 37.1635C288.745 37.1704 289.953 36.5255 290.988 35.2286C291.617 34.4505 292.104 33.5284 292.448 32.4625C292.791 31.3965 292.966 30.2841 292.972 29.1252C292.978 28.0054 292.821 26.9109 292.5 25.8415C292.193 24.7593 291.755 23.8326 291.186 23.0614C290.216 21.7284 289.028 21.0584 287.622 21.0513C286.932 21.0478 286.28 21.2138 285.667 21.5492C285.053 21.8847 284.562 22.3444 284.195 22.9285C283.788 23.5515 283.504 24.3313 283.343 25.268C283.182 26.1917 283.097 27.5129 283.089 29.2316ZM298.773 29.1935C298.783 27.0842 299.574 25.2066 301.145 23.5609C303.056 21.5653 305.333 20.5741 307.976 20.5875C310.62 20.6008 312.88 21.6148 314.758 23.6295C316.312 25.304 317.084 27.196 317.073 29.3053C317.063 31.3886 316.311 33.2403 314.819 34.8604C312.986 36.8564 310.676 37.8474 307.889 37.8333C305.103 37.8193 302.797 36.8051 300.971 34.7906C300.259 34.0058 299.71 33.1306 299.324 32.1651C298.951 31.1997 298.768 30.2091 298.773 29.1935ZM302.328 28.9966C302.317 31.2622 302.815 33.1853 303.823 34.7659C304.96 36.5295 306.355 37.4154 308.009 37.4238C308.712 37.4273 309.396 37.2355 310.062 36.8482C310.728 36.4609 311.304 35.9169 311.789 35.2163C312.301 34.4897 312.716 33.5803 313.034 32.4881C313.352 31.3829 313.513 30.316 313.518 29.2874C313.524 28.2197 313.36 27.1446 313.027 26.0622C312.707 24.9668 312.269 24.0271 311.713 23.2431C310.653 21.7663 309.348 21.0241 307.798 21.0163C306.327 21.0088 305.054 21.7772 303.978 23.3213C302.89 24.8653 302.34 26.757 302.328 28.9966ZM324.406 23.6781C324.879 22.8602 325.41 22.2444 325.998 21.8307C327.082 21.0679 328.315 20.69 329.695 20.697C330.541 20.7012 331.185 20.8933 331.626 21.2731C332.027 21.6137 332.227 22.0314 332.225 22.5261C332.223 22.8907 332.098 23.1896 331.849 23.4227C331.614 23.6559 331.307 23.7715 330.929 23.7696C330.487 23.7674 330.103 23.5832 329.78 23.217L329.178 22.5498C328.698 22.0396 328.133 21.7829 327.482 21.7796C326.597 21.7751 325.904 22.3445 325.403 23.4879C324.903 24.6312 324.647 26.225 324.637 28.2692L324.619 31.9215L324.631 33.406C324.626 34.2914 324.675 34.9427 324.777 35.3599C324.879 35.764 325.079 36.1036 325.377 36.3785C325.74 36.7319 326.409 37.0022 327.385 37.1894L327.383 37.5801L318.77 37.5366L318.772 37.146C319.554 37.0458 320.114 36.9054 320.454 36.7248C320.793 36.5312 321.068 36.2071 321.279 35.7524C321.424 35.4536 321.524 35.0049 321.579 34.4062C321.647 33.7946 321.684 32.9158 321.69 31.77L321.714 26.9459C321.721 25.6047 321.693 24.6671 321.631 24.1329C321.568 23.5857 321.427 23.1423 321.208 22.8026C320.988 22.4369 320.722 22.1752 320.411 22.0174C320.099 21.8465 319.65 21.7401 319.065 21.6981L319.067 21.3074L324.09 20.6296C324.305 21.8156 324.411 22.8318 324.406 23.6781ZM337.799 21.0308L342.779 21.0559L342.775 21.7981L337.795 21.773L337.738 33.14C337.731 34.5072 337.96 35.4849 338.426 36.0732C338.672 36.4 338.996 36.6555 339.399 36.8398C339.801 37.0242 340.237 37.1175 340.706 37.1199C341.292 37.1228 341.781 37.0081 342.173 36.7757C342.564 36.5303 342.996 36.0897 343.468 35.4541L343.76 35.7095C343.326 36.4885 342.718 37.0649 341.935 37.4386C341.165 37.8123 340.2 37.9962 339.041 37.9904C337.505 37.9826 336.387 37.6775 335.687 37.075C335.311 36.7606 335.065 36.3883 334.95 35.958C334.835 35.5147 334.78 34.7267 334.786 33.5939L334.846 21.7581L332.756 21.7476L332.758 21.4351C333.605 21.1659 334.389 20.6425 335.109 19.8649C335.541 19.3853 335.889 18.9118 336.152 18.4443C336.414 17.9639 336.665 17.3466 336.903 16.5926L337.102 15.9491L337.824 15.9527L337.799 21.0308ZM348.967 21.8293L348.915 32.044L348.927 33.5285C348.923 34.4139 348.972 35.0652 349.074 35.4823C349.176 35.8865 349.376 36.2261 349.674 36.501C350.037 36.8544 350.706 37.1247 351.682 37.3119L351.68 37.7025L343.067 37.6591L343.068 37.2685C343.85 37.1683 344.411 37.0279 344.75 36.8473C345.09 36.6537 345.365 36.3295 345.576 35.8749C345.72 35.5761 345.82 35.1274 345.875 34.5287C345.943 33.9171 345.98 33.0383 345.986 31.8925L346.037 21.8145L343.205 21.8002L343.209 21.0581L346.041 21.0723L346.065 16.3068C346.071 15.161 346.218 14.2567 346.508 13.5941C346.811 12.9316 347.341 12.3223 348.099 11.7662C348.779 11.2748 349.608 10.8949 350.586 10.6264C351.577 10.3449 352.619 10.2069 353.713 10.2124C354.728 10.2176 355.541 10.3974 356.152 10.7521C356.762 11.1067 357.065 11.577 357.062 12.163C357.06 12.5536 356.929 12.8784 356.667 13.1375C356.418 13.3967 356.112 13.5254 355.747 13.5235C355.395 13.5218 355.09 13.4291 354.83 13.2455C354.571 13.0488 354.312 12.735 354.054 12.304C353.692 11.7032 353.395 11.3111 353.161 11.1276C352.928 10.9312 352.609 10.8319 352.206 10.8299C351.711 10.8274 351.242 10.9292 350.798 11.1353C350.354 11.3283 350.008 11.587 349.759 11.9113C349.484 12.2745 349.292 12.7553 349.185 13.3537C349.078 13.9391 349.022 14.7917 349.016 15.9115L348.99 21.0872L352.838 21.1066L352.834 21.8488L348.967 21.8293ZM354.983 29.4769C354.994 27.3676 355.784 25.49 357.355 23.8443C359.266 21.8487 361.543 20.8575 364.187 20.8709C366.83 20.8842 369.09 21.8982 370.968 23.9129C372.522 25.5874 373.294 27.4794 373.283 29.5887C373.273 31.672 372.521 33.5237 371.029 35.1438C369.196 37.1398 366.886 38.1308 364.1 38.1167C361.313 38.1027 359.007 37.0884 357.181 35.074C356.469 34.2891 355.92 33.414 355.534 32.4485C355.162 31.483 354.978 30.4925 354.983 29.4769ZM358.539 29.28C358.527 31.5456 359.025 33.4687 360.033 35.0493C361.17 36.8129 362.565 37.6988 364.219 37.7072C364.922 37.7107 365.607 37.5188 366.273 37.1316C366.939 36.7443 367.514 36.2003 368 35.4996C368.511 34.773 368.926 33.8637 369.244 32.7715C369.562 31.6663 369.724 30.5994 369.729 29.5708C369.734 28.5031 369.57 27.428 369.237 26.3456C368.917 25.2502 368.479 24.3105 367.923 23.5264C366.863 22.0497 365.558 21.3075 364.009 21.2996C362.537 21.2922 361.264 22.0606 360.188 23.6046C359.1 25.1486 358.55 27.0404 358.539 29.28ZM375.33 11.0832L380.939 10.4083L380.829 32.2049L380.841 33.6894C380.836 34.5748 380.885 35.2261 380.987 35.6432C381.089 36.0474 381.29 36.387 381.588 36.6619C381.95 37.0153 382.62 37.2856 383.595 37.4728L383.593 37.8634L374.98 37.82L374.982 37.4294C375.764 37.3292 376.325 37.1888 376.664 37.0082C377.003 36.8146 377.279 36.4904 377.489 36.0358C377.634 35.737 377.734 35.2883 377.789 34.6896C377.857 34.078 377.894 33.1992 377.9 32.0534L377.977 16.7216C377.984 15.3935 377.956 14.4558 377.894 13.9086C377.831 13.3614 377.69 12.918 377.471 12.5783C377.251 12.2126 376.986 11.9509 376.674 11.7931C376.362 11.6352 375.913 11.5353 375.328 11.4933L375.33 11.0832ZM384.964 21.6397L390.573 20.9648L390.516 32.2537L390.528 33.7382C390.524 34.6236 390.573 35.2749 390.675 35.6921C390.777 36.0962 390.977 36.4358 391.275 36.7107C391.638 37.0641 392.307 37.3344 393.283 37.5217L393.281 37.9123L384.668 37.8689L384.67 37.4782C385.451 37.378 386.012 37.2376 386.351 37.057C386.691 36.8634 386.966 36.5393 387.177 36.0846C387.321 35.7859 387.421 35.3371 387.476 34.7384C387.545 34.1268 387.581 33.2481 387.587 32.1022L387.612 27.2781C387.618 25.937 387.591 24.9993 387.528 24.4651C387.466 23.9179 387.325 23.4745 387.105 23.1349C386.886 22.7692 386.62 22.5074 386.308 22.3496C385.997 22.1787 385.548 22.0723 384.962 22.0303L384.964 21.6397ZM389.065 13.9845C388.558 13.9819 388.135 13.817 387.798 13.4898C387.474 13.1626 387.314 12.7517 387.316 12.2569C387.319 11.7751 387.49 11.3723 387.83 11.0485C388.17 10.7117 388.588 10.5445 389.083 10.547C389.577 10.5495 389.993 10.7209 390.33 11.0611C390.667 11.3883 390.834 11.7928 390.832 12.2746C390.829 12.7694 390.658 13.1787 390.318 13.5025C389.991 13.8264 389.573 13.987 389.065 13.9845ZM395.061 29.679C395.071 27.5696 395.862 25.6921 397.433 24.0463C399.344 22.0507 401.621 21.0596 404.264 21.0729C406.907 21.0862 409.168 22.1002 411.046 24.1149C412.6 25.7895 413.372 27.6814 413.361 29.7908C413.35 31.8741 412.599 33.7258 411.106 35.3459C409.273 37.3419 406.964 38.3328 404.177 38.3188C401.391 38.3047 399.085 37.2905 397.259 35.276C396.547 34.4912 395.998 33.616 395.612 32.6505C395.239 31.6851 395.055 30.6946 395.061 29.679ZM398.616 29.482C398.605 31.7476 399.103 33.6707 400.111 35.2514C401.248 37.0149 402.643 37.9009 404.296 37.9092C405 37.9128 405.684 37.7209 406.35 37.3336C407.016 36.9464 407.592 36.4024 408.077 35.7017C408.589 34.9751 409.003 34.0657 409.321 32.9736C409.64 31.8684 409.801 30.8015 409.806 29.7728C409.812 28.7051 409.648 27.6301 409.315 26.5477C408.995 25.4523 408.557 24.5126 408.001 23.7285C406.941 22.2518 405.636 21.5095 404.086 21.5017C402.615 21.4943 401.341 22.2626 400.266 23.8067C399.177 25.3507 398.628 27.2425 398.616 29.482Z" fill="white"/>
<ellipse cx="439.5" cy="70.5" rx="18.5" ry="19.5" fill="#E25529"/>
</svg>
