<svg width="1640" height="563" viewBox="0 0 1640 563" fill="none" xmlns="http://www.w3.org/2000/svg">
<g filter="url(#filter0_d_425_19)">
<ellipse cx="782" cy="259" rx="186" ry="179" fill="#E25529"/>
</g>
<path d="M80.496 281.424H54.576L49.584 294H29.616L57.456 221.616H78L105.264 294H85.2L80.496 281.424ZM75.408 267.024L67.728 243.984H67.536L59.76 267.024H75.408ZM128.232 214.32V262.512L146.376 244.752H170.28L145.608 267.504L171.816 294H147.336L128.232 273.936V294H110.76V214.32H128.232ZM215.254 246.288L209.398 257.424C206.71 255.984 202.966 255.024 199.99 255.024C197.974 255.024 194.518 255.888 194.518 258.384C194.518 261.744 199.99 262.224 202.39 262.704C210.55 264.336 216.694 268.176 216.694 277.296C216.694 290.256 204.886 295.632 193.462 295.632C186.454 295.632 179.542 293.616 173.59 289.968L179.926 277.776C183.478 280.272 189.43 282.768 193.75 282.768C195.958 282.768 199.222 281.712 199.222 279.024C199.222 275.184 193.75 274.992 188.278 273.552C182.806 272.112 177.334 269.424 177.334 260.592C177.334 248.496 188.278 243.12 199.03 243.12C204.598 243.12 210.166 243.984 215.254 246.288ZM243.545 244.752V294H226.073V244.752H243.545ZM234.809 216.048C240.185 216.048 244.601 220.464 244.601 225.84C244.601 231.216 240.185 235.632 234.809 235.632C229.433 235.632 225.017 231.216 225.017 225.84C225.017 220.464 229.433 216.048 234.809 216.048ZM254.753 244.752H272.225V271.056C272.225 277.296 273.761 281.712 280.961 281.712C288.161 281.712 289.697 277.296 289.697 271.056V244.752H307.169V274.416C307.169 290.64 295.745 295.632 280.961 295.632C266.177 295.632 254.753 290.64 254.753 274.416V244.752ZM356.723 246.288L350.867 257.424C348.179 255.984 344.435 255.024 341.459 255.024C339.443 255.024 335.987 255.888 335.987 258.384C335.987 261.744 341.459 262.224 343.859 262.704C352.019 264.336 358.163 268.176 358.163 277.296C358.163 290.256 346.355 295.632 334.931 295.632C327.923 295.632 321.011 293.616 315.059 289.968L321.395 277.776C324.947 280.272 330.899 282.768 335.219 282.768C337.427 282.768 340.691 281.712 340.691 279.024C340.691 275.184 335.219 274.992 329.747 273.552C324.275 272.112 318.803 269.424 318.803 260.592C318.803 248.496 329.747 243.12 340.499 243.12C346.067 243.12 351.635 243.984 356.723 246.288ZM391.733 279.504H412.469V294H362.549L385.685 259.248H365.621V244.752H414.773L391.733 279.504ZM438.638 214.32V262.512L456.782 244.752H480.686L456.014 267.504L482.222 294H457.742L438.638 273.936V294H421.166V214.32H438.638ZM512.988 258.288C505.884 258.288 501.756 263.376 501.756 269.424C501.756 275.664 505.884 280.464 512.988 280.464C520.092 280.464 524.22 275.664 524.22 269.424C524.22 263.376 520.092 258.288 512.988 258.288ZM541.116 244.752V294H523.644V288.528H523.452C520.38 293.424 514.332 295.632 508.572 295.632C493.98 295.632 483.708 283.44 483.708 269.328C483.708 255.216 493.788 243.12 508.38 243.12C514.044 243.12 519.996 245.232 523.644 249.552V244.752H541.116Z" fill="black"/>
<path d="M640.622 338.032C637.635 338.032 635.545 336.581 634.35 333.68C633.07 330.779 632.43 327.195 632.43 322.928C632.43 321.136 632.515 319.216 632.686 317.168C632.857 315.205 633.113 313.243 633.454 311.28C633.881 308.549 634.478 305.861 635.246 303.216C636.014 300.571 636.825 298.053 637.678 295.664C638.873 292.251 640.195 289.051 641.646 286.064C643.182 282.992 643.95 279.621 643.95 275.952V275.44C643.95 270.405 643.737 265.712 643.31 261.36C642.969 257.008 642.499 253.253 641.902 250.096C641.39 246.939 640.878 244.635 640.366 243.184C642.073 242.672 643.523 242.075 644.718 241.392C645.913 240.709 647.022 240.325 648.046 240.24H648.686C650.307 240.24 651.331 241.093 651.758 242.8C652.185 244.421 652.441 246.384 652.526 248.688C652.611 250.224 652.654 252.229 652.654 254.704C652.654 257.179 652.697 259.909 652.782 262.896C653.977 258.629 655.385 254.491 657.006 250.48C658.627 246.469 660.419 243.184 662.382 240.624C664.345 237.979 666.35 236.656 668.398 236.656C670.958 236.656 672.921 237.552 674.286 239.344C675.737 241.136 676.761 243.397 677.358 246.128C678.041 248.773 678.425 251.461 678.51 254.192C678.681 256.837 678.766 259.056 678.766 260.848C678.766 265.285 678.169 269.936 676.974 274.8C675.865 279.664 674.03 283.803 671.47 287.216H672.366C675.438 287.216 678.467 285.808 681.454 282.992C684.526 280.091 687.129 275.739 689.262 269.936C689.603 269.083 689.987 268.656 690.414 268.656C691.011 268.656 691.31 269.125 691.31 270.064C691.31 270.405 691.267 270.661 691.182 270.832C688.878 277.488 686.019 282.309 682.606 285.296C679.278 288.283 675.993 289.776 672.75 289.776C672.238 289.776 671.726 289.733 671.214 289.648C670.702 289.477 670.19 289.349 669.678 289.264C668.313 290.715 666.734 291.867 664.942 292.72C663.15 293.573 661.145 294 658.926 294C656.451 294 654.574 293.488 653.294 292.464V298.096C653.294 300.741 653.294 303.131 653.294 305.264C653.294 307.483 653.251 309.275 653.166 310.64C652.91 316.016 652.441 320.411 651.758 323.824C650.905 328.005 649.625 331.419 647.918 334.064C646.211 336.709 643.907 338.032 641.006 338.032H640.622ZM657.006 290.544C658.371 290.544 659.609 290.117 660.718 289.264C662.681 287.728 664.259 285.253 665.454 281.84C666.734 278.341 667.63 274.885 668.142 271.472C668.398 270.021 668.569 268.272 668.654 266.224C668.825 264.176 668.91 262.085 668.91 259.952C668.91 256.283 668.611 252.997 668.014 250.096C667.417 247.109 666.265 245.616 664.558 245.616C663.534 245.616 662.467 246.512 661.358 248.304C660.334 250.096 659.31 252.443 658.286 255.344C657.262 258.245 656.281 261.36 655.342 264.688C654.489 267.931 653.721 271.045 653.038 274.032C653.123 276.507 653.166 278.981 653.166 281.456C653.166 283.931 653.166 286.405 653.166 288.88C654.275 289.989 655.555 290.544 657.006 290.544ZM640.11 333.936C640.622 333.936 641.134 333.552 641.646 332.784C642.243 332.101 642.755 330.949 643.182 329.328C643.779 327.109 644.163 324.251 644.334 320.752C644.59 317.253 644.718 313.584 644.718 309.744C644.718 305.563 644.633 301.467 644.462 297.456C644.291 293.531 644.121 290.245 643.95 287.6C643.182 289.392 642.329 291.525 641.39 294C640.451 296.475 639.641 299.077 638.958 301.808C638.105 304.88 637.422 307.995 636.91 311.152C636.313 314.395 636.014 317.637 636.014 320.88C636.014 323.611 636.27 326.341 636.782 329.072C637.038 330.267 637.507 331.376 638.19 332.4C638.787 333.424 639.427 333.936 640.11 333.936ZM701.036 295.28C698.135 295.28 695.745 294.512 693.868 292.976C692.076 291.44 690.668 289.435 689.644 286.96C688.705 284.485 688.023 281.797 687.596 278.896C687.255 275.909 687.084 273.008 687.084 270.192C687.084 268.059 687.169 266.096 687.34 264.304C687.511 262.427 687.639 260.805 687.724 259.44C688.151 255.856 689.089 252.272 690.54 248.688C691.991 245.019 694.124 241.989 696.94 239.6C699.756 237.125 703.468 235.888 708.076 235.888C712.087 235.888 714.988 237.509 716.78 240.752C718.572 243.995 719.639 247.835 719.98 252.272C721.431 253.296 722.753 253.808 723.948 253.808C725.484 253.808 726.935 253.04 728.3 251.504C729.665 249.968 730.817 247.408 731.756 243.824C730.647 242.715 729.793 241.392 729.196 239.856C728.599 238.235 728.3 236.656 728.3 235.12C728.3 233.328 728.684 231.792 729.452 230.512C730.22 229.147 731.415 228.464 733.036 228.464C733.207 228.464 733.335 228.507 733.42 228.592C733.591 228.592 733.761 228.592 733.932 228.592C735.041 228.763 735.809 229.403 736.236 230.512C736.663 231.621 736.876 232.901 736.876 234.352C736.876 236.315 736.62 238.363 736.108 240.496C735.681 242.544 735.297 244.037 734.956 244.976C734.785 245.317 734.7 245.573 734.7 245.744C735.127 245.829 735.511 245.872 735.852 245.872C736.279 245.872 736.663 245.872 737.004 245.872C739.393 245.872 741.057 245.403 741.996 244.464C742.679 243.781 743.447 242.843 744.3 241.648C745.239 240.368 746.647 239.728 748.524 239.728C749.975 239.728 751.596 240.197 753.388 241.136C753.132 241.648 752.791 242.416 752.364 243.44C751.937 244.379 751.468 245.616 750.956 247.152C749.676 250.992 748.524 255.344 747.5 260.208C746.476 264.987 745.879 269.893 745.708 274.928V277.232C745.708 278.853 745.836 280.731 746.092 282.864C746.348 284.912 746.817 286.704 747.5 288.24C748.268 289.776 749.42 290.629 750.956 290.8H751.468C753.175 290.8 754.54 290.288 755.564 289.264C756.588 288.155 757.441 286.917 758.124 285.552C758.807 284.357 759.404 282.907 759.916 281.2C760.513 279.493 761.111 277.701 761.708 275.824C762.049 275.056 762.391 274.672 762.732 274.672C763.159 274.672 763.372 275.184 763.372 276.208V276.72C763.287 278.427 762.988 280.261 762.476 282.224C761.964 284.101 761.196 285.851 760.172 287.472L758.508 290.032C756.631 292.763 754.071 294.384 750.828 294.896C750.487 294.981 750.103 295.024 749.676 295.024C749.335 295.024 748.951 295.024 748.524 295.024C745.452 295.024 743.105 294.128 741.484 292.336C739.863 290.459 738.711 288.112 738.028 285.296C737.431 282.395 737.132 279.451 737.132 276.464C737.132 274.245 737.217 272.155 737.388 270.192C737.644 268.144 737.857 266.352 738.028 264.816C738.796 258.501 739.735 253.211 740.844 248.944C739.479 249.2 738.241 249.328 737.132 249.328C736.364 249.328 735.681 249.285 735.084 249.2C734.487 249.029 733.932 248.901 733.42 248.816C732.055 251.632 730.519 253.637 728.812 254.832C727.105 255.941 725.399 256.496 723.692 256.496C722.668 256.496 721.516 256.283 720.236 255.856V256.88C720.236 260.549 719.98 264.133 719.468 267.632C719.041 271.045 718.529 273.776 717.932 275.824C717.249 278.469 716.14 281.328 714.604 284.4C713.068 287.387 711.148 289.947 708.844 292.08C706.625 294.213 704.023 295.28 701.036 295.28ZM705.26 288.24C707.052 288.24 708.545 287.387 709.74 285.68C711.02 283.973 712.087 282.011 712.94 279.792C713.793 277.573 714.391 275.696 714.732 274.16C715.073 272.88 715.329 271.216 715.5 269.168C715.756 267.12 715.884 264.987 715.884 262.768C715.884 260.976 715.756 259.184 715.5 257.392C715.329 255.515 715.031 253.765 714.604 252.144C713.409 251.205 712.129 249.883 710.764 248.176C709.484 246.384 708.844 244.677 708.844 243.056C708.844 241.52 709.569 240.325 711.02 239.472C710.167 238.875 709.356 238.576 708.588 238.576C707.052 238.576 705.687 239.429 704.492 241.136C703.297 242.843 702.273 244.891 701.42 247.28C700.652 249.669 700.012 251.973 699.5 254.192C699.073 256.325 698.817 257.819 698.732 258.672C698.647 259.611 698.519 261.061 698.348 263.024C698.177 264.901 698.092 266.992 698.092 269.296C698.092 272.197 698.263 275.099 698.604 278C699.031 280.901 699.756 283.333 700.78 285.296C701.804 287.259 703.297 288.24 705.26 288.24ZM773.604 294.64C771.044 294.64 768.953 293.829 767.332 292.208C765.796 290.587 764.601 288.539 763.748 286.064C762.895 283.589 762.297 281.029 761.956 278.384C761.7 275.739 761.572 273.392 761.572 271.344V269.424C761.657 268.4 761.743 266.48 761.828 263.664C761.913 260.848 762.041 257.563 762.212 253.808C762.383 249.968 762.639 246.085 762.98 242.16H759.012C758.329 242.16 757.988 241.733 757.988 240.88C757.988 240.453 758.159 240.027 758.5 239.6C758.756 239.088 759.097 238.832 759.524 238.832H763.236C763.577 234.821 763.961 231.195 764.388 227.952C764.815 224.709 765.327 222.405 765.924 221.04C766.351 220.101 767.119 219.291 768.228 218.608C769.337 217.84 770.831 217.456 772.708 217.456C773.22 217.456 773.775 217.499 774.372 217.584C775.055 217.669 775.695 217.797 776.292 217.968C775.865 219.419 775.353 222.064 774.756 225.904C774.244 229.659 773.775 233.968 773.348 238.832H783.588C784.356 238.832 784.74 239.301 784.74 240.24C784.74 240.667 784.612 241.093 784.356 241.52C784.1 241.947 783.716 242.16 783.204 242.16H772.964C772.537 246.853 772.196 251.717 771.94 256.752C771.684 261.701 771.513 266.267 771.428 270.448V273.392C771.428 275.611 771.513 278.043 771.684 280.688C771.855 283.333 772.281 285.595 772.964 287.472C773.647 289.349 774.671 290.288 776.036 290.288H776.164C776.847 290.288 777.572 289.947 778.34 289.264C779.193 288.581 780.089 287.301 781.028 285.424C781.711 284.229 782.308 282.821 782.82 281.2C783.417 279.493 784.015 277.701 784.612 275.824C784.953 275.056 785.295 274.672 785.636 274.672C786.063 274.672 786.276 275.184 786.276 276.208V276.72C786.105 278.939 785.508 281.456 784.484 284.272C783.46 287.088 782.009 289.52 780.132 291.568C778.34 293.616 776.164 294.64 773.604 294.64ZM801.468 335.984C798.396 335.984 795.964 335.259 794.172 333.808C792.38 332.443 791.015 330.651 790.076 328.432C789.137 326.299 788.455 323.952 788.028 321.392C787.601 318.917 787.303 316.528 787.132 314.224C787.047 312.773 786.961 310.213 786.876 306.544C786.791 302.875 786.748 298.523 786.748 293.488C786.748 291.781 786.748 289.861 786.748 287.728C786.748 285.509 786.791 282.608 786.876 279.024C786.961 275.355 787.047 270.491 787.132 264.432C787.217 260.677 787.388 256.453 787.644 251.76C787.9 246.981 788.284 242.117 788.796 237.168C789.393 232.133 790.119 227.269 790.972 222.576C791.911 217.797 793.02 213.531 794.3 209.776C795.665 206.021 797.287 203.035 799.164 200.816C801.127 198.597 803.388 197.488 805.948 197.488C808.081 197.488 809.788 198.171 811.068 199.536C812.348 200.901 813.287 202.565 813.884 204.528C814.481 206.405 814.78 208.197 814.78 209.904C814.78 213.829 814.183 218.267 812.988 223.216C811.879 228.08 810.343 233.157 808.38 238.448C806.503 243.739 804.455 248.944 802.236 254.064C800.017 259.184 797.841 263.92 795.708 268.272C795.623 269.125 795.537 269.979 795.452 270.832C795.452 271.6 795.452 272.411 795.452 273.264C799.121 273.435 802.193 274.629 804.668 276.848C807.228 279.067 809.233 281.883 810.684 285.296C812.22 288.709 813.287 292.336 813.884 296.176C814.567 300.101 814.908 303.771 814.908 307.184C814.908 312.304 814.396 317.04 813.372 321.392C812.348 325.744 810.812 329.243 808.764 331.888C806.801 334.619 804.369 335.984 801.468 335.984ZM796.22 260.592C799.207 254.192 801.852 247.707 804.156 241.136C806.46 234.565 808.252 227.781 809.532 220.784C809.873 218.907 810.129 217.115 810.3 215.408C810.556 213.616 810.684 212.037 810.684 210.672C810.684 208.965 810.513 207.6 810.172 206.576C809.831 205.552 809.319 204.997 808.636 204.912H808.508C807.484 204.912 806.503 205.851 805.564 207.728C804.625 209.52 803.815 211.909 803.132 214.896C801.511 222.149 800.103 229.659 798.908 237.424C797.799 245.189 796.903 252.912 796.22 260.592ZM801.596 333.424C803.132 333.424 804.497 332.485 805.692 330.608C806.887 328.731 807.825 326.256 808.508 323.184C809.191 320.112 809.532 316.741 809.532 313.072C809.532 310 809.404 306.501 809.148 302.576C808.892 298.736 808.295 294.939 807.356 291.184C806.417 287.429 804.967 284.187 803.004 281.456C801.127 278.725 798.524 277.019 795.196 276.336C794.94 282.053 794.812 287.6 794.812 292.976C794.812 300.741 795.068 307.653 795.58 313.712C796.177 319.856 796.988 324.677 798.012 328.176C799.036 331.675 800.231 333.424 801.596 333.424ZM829.268 295.28C826.367 295.28 823.977 294.512 822.1 292.976C820.308 291.44 818.9 289.435 817.876 286.96C816.937 284.485 816.255 281.797 815.828 278.896C815.487 275.909 815.316 273.008 815.316 270.192C815.316 268.059 815.401 266.096 815.572 264.304C815.743 262.427 815.871 260.805 815.956 259.44C816.383 255.856 817.321 252.272 818.772 248.688C820.223 245.019 822.356 241.989 825.172 239.6C827.988 237.125 831.7 235.888 836.308 235.888C839.551 235.888 842.025 236.955 843.732 239.088C845.524 241.136 846.761 243.824 847.444 247.152C848.127 250.395 848.468 253.851 848.468 257.52C848.468 258.544 848.425 259.568 848.34 260.592C848.34 261.616 848.297 262.64 848.212 263.664C850.345 266.053 852.905 267.248 855.892 267.248C858.196 267.248 860.457 266.395 862.676 264.688C863.188 264.261 863.657 264.048 864.084 264.048C864.425 264.048 864.596 264.261 864.596 264.688C864.596 265.456 864.383 265.968 863.956 266.224C862.591 267.504 861.14 268.443 859.604 269.04C858.068 269.637 856.532 269.936 854.996 269.936C852.351 269.936 849.919 269.168 847.7 267.632C847.529 269.253 847.273 270.789 846.932 272.24C846.676 273.605 846.42 274.8 846.164 275.824C845.396 278.469 844.244 281.328 842.708 284.4C841.257 287.387 839.38 289.947 837.076 292.08C834.857 294.213 832.255 295.28 829.268 295.28ZM833.492 288.24C835.284 288.24 836.777 287.387 837.972 285.68C839.252 283.973 840.319 282.011 841.172 279.792C842.025 277.573 842.623 275.696 842.964 274.16C843.22 272.965 843.433 271.6 843.604 270.064C843.775 268.528 843.903 266.693 843.988 264.56C842.793 263.536 841.769 261.701 840.916 259.056C840.148 256.325 839.764 253.723 839.764 251.248C839.764 249.541 839.977 248.048 840.404 246.768C840.831 245.403 841.471 244.507 842.324 244.08C841.812 242.8 841.129 241.605 840.276 240.496C839.423 239.301 838.228 238.704 836.692 238.704C835.241 238.704 833.919 239.557 832.724 241.264C831.615 242.971 830.633 245.019 829.78 247.408C828.927 249.797 828.244 252.059 827.732 254.192C827.305 256.325 827.049 257.819 826.964 258.672C826.879 259.611 826.751 261.061 826.58 263.024C826.409 264.901 826.324 266.992 826.324 269.296C826.324 272.197 826.495 275.099 826.836 278C827.263 280.901 827.988 283.333 829.012 285.296C830.036 287.259 831.529 288.24 833.492 288.24ZM872.533 295.28C869.632 295.28 867.242 294.384 865.365 292.592C863.573 290.8 862.165 288.539 861.141 285.808C860.117 282.992 859.349 280.133 858.837 277.232C858.41 274.331 858.154 271.813 858.069 269.68C857.984 268.229 857.941 266.907 857.941 265.712C857.941 264.517 857.941 263.408 857.941 262.384V262.256C857.941 257.819 858.069 253.253 858.325 248.56C858.581 243.867 858.922 239.344 859.349 234.992C859.776 230.555 860.245 226.544 860.757 222.96C861.269 219.291 861.781 216.304 862.293 214C862.805 211.867 863.616 209.435 864.725 206.704C865.834 203.973 867.285 201.627 869.077 199.664C870.869 197.616 873.002 196.592 875.477 196.592C878.464 196.592 880.512 197.744 881.621 200.048C882.73 202.267 883.285 205.04 883.285 208.368C883.285 211.184 882.986 214.213 882.389 217.456C881.877 220.613 881.194 223.685 880.341 226.672C879.488 229.659 878.677 232.304 877.909 234.608C877.226 236.912 876.672 238.576 876.245 239.6C874.88 243.184 873.301 246.811 871.509 250.48C869.802 254.149 868.096 257.477 866.389 260.464C866.389 261.317 866.346 262.256 866.261 263.28C866.261 264.219 866.261 265.285 866.261 266.48C866.261 268.955 866.346 271.6 866.517 274.416C866.688 277.232 867.072 279.877 867.669 282.352C868.266 284.741 869.12 286.704 870.229 288.24C871.338 289.776 872.789 290.544 874.581 290.544C876.373 290.544 877.952 289.861 879.317 288.496C881.024 286.875 882.304 284.699 883.157 281.968C884.096 279.237 884.906 276.464 885.589 273.648C885.845 272.453 886.272 271.856 886.869 271.856C887.296 271.856 887.509 272.368 887.509 273.392C887.509 273.648 887.466 273.947 887.381 274.288C887.381 274.629 887.338 275.013 887.253 275.44C886.741 278.341 885.93 281.328 884.821 284.4C883.797 287.472 882.304 290.075 880.341 292.208C878.464 294.256 875.861 295.28 872.533 295.28ZM866.645 255.088C868.864 250.565 870.912 245.787 872.789 240.752C874.666 235.632 876.16 230.597 877.269 225.648C878.464 220.613 879.061 216.048 879.061 211.952C879.061 209.477 878.848 207.429 878.421 205.808C878.08 204.187 877.397 203.376 876.373 203.376C875.349 203.376 874.368 204.485 873.429 206.704C872.576 208.923 871.765 211.824 870.997 215.408C870.314 218.992 869.717 222.875 869.205 227.056C868.693 231.152 868.224 235.163 867.797 239.088C867.456 242.928 867.157 246.299 866.901 249.2C866.73 252.101 866.645 254.064 866.645 255.088ZM897.232 229.232C895.611 229.232 894.16 228.635 892.88 227.44C891.685 226.245 891.088 224.795 891.088 223.088C891.088 221.381 891.685 219.931 892.88 218.736C894.16 217.541 895.611 216.944 897.232 216.944C898.939 216.944 900.389 217.541 901.584 218.736C902.779 219.931 903.376 221.381 903.376 223.088C903.376 224.795 902.779 226.245 901.584 227.44C900.389 228.635 898.939 229.232 897.232 229.232ZM896.336 294.64C893.264 294.64 890.832 293.36 889.04 290.8C887.333 288.155 886.096 284.827 885.328 280.816C884.645 276.72 884.304 272.453 884.304 268.016C884.304 264.347 884.475 260.805 884.816 257.392C885.243 253.893 885.712 250.864 886.224 248.304C886.821 245.659 887.376 243.781 887.888 242.672C888.4 241.648 889.211 240.709 890.32 239.856C891.515 238.917 893.093 238.448 895.056 238.448C896.165 238.448 897.275 238.576 898.384 238.832C897.531 241.819 896.507 245.957 895.312 251.248C894.117 256.539 893.52 262.384 893.52 268.784C893.52 271.003 893.563 273.392 893.648 275.952C893.733 278.427 893.947 280.773 894.288 282.992C894.629 285.125 895.141 286.875 895.824 288.24C896.592 289.605 897.573 290.288 898.768 290.288H898.896C899.579 290.288 900.304 289.947 901.072 289.264C901.925 288.581 902.821 287.301 903.76 285.424C905.04 282.949 906.235 279.749 907.344 275.824C907.515 275.056 907.856 274.672 908.368 274.672C908.795 274.672 909.008 275.184 909.008 276.208V276.72C908.837 278.939 908.24 281.456 907.216 284.272C906.192 287.088 904.741 289.52 902.864 291.568C901.072 293.616 898.896 294.64 896.336 294.64ZM920.893 295.28C917.992 295.28 915.602 294.512 913.725 292.976C911.933 291.44 910.525 289.435 909.501 286.96C908.562 284.485 907.88 281.797 907.453 278.896C907.112 275.909 906.941 273.008 906.941 270.192C906.941 268.059 907.026 266.096 907.197 264.304C907.368 262.427 907.496 260.805 907.581 259.44C908.008 255.856 908.946 252.272 910.397 248.688C911.848 245.019 913.981 241.989 916.797 239.6C919.613 237.125 923.325 235.888 927.933 235.888C931.176 235.888 933.65 236.955 935.357 239.088C937.149 241.136 938.386 243.824 939.069 247.152C939.752 250.395 940.093 253.851 940.093 257.52C940.093 258.544 940.05 259.568 939.965 260.592C939.965 261.616 939.922 262.64 939.837 263.664C941.97 266.053 944.53 267.248 947.517 267.248C949.821 267.248 952.082 266.395 954.301 264.688C954.813 264.261 955.282 264.048 955.709 264.048C956.05 264.048 956.221 264.261 956.221 264.688C956.221 265.456 956.008 265.968 955.581 266.224C954.216 267.504 952.765 268.443 951.229 269.04C949.693 269.637 948.157 269.936 946.621 269.936C943.976 269.936 941.544 269.168 939.325 267.632C939.154 269.253 938.898 270.789 938.557 272.24C938.301 273.605 938.045 274.8 937.789 275.824C937.021 278.469 935.869 281.328 934.333 284.4C932.882 287.387 931.005 289.947 928.701 292.08C926.482 294.213 923.88 295.28 920.893 295.28ZM925.117 288.24C926.909 288.24 928.402 287.387 929.597 285.68C930.877 283.973 931.944 282.011 932.797 279.792C933.65 277.573 934.248 275.696 934.589 274.16C934.845 272.965 935.058 271.6 935.229 270.064C935.4 268.528 935.528 266.693 935.613 264.56C934.418 263.536 933.394 261.701 932.541 259.056C931.773 256.325 931.389 253.723 931.389 251.248C931.389 249.541 931.602 248.048 932.029 246.768C932.456 245.403 933.096 244.507 933.949 244.08C933.437 242.8 932.754 241.605 931.901 240.496C931.048 239.301 929.853 238.704 928.317 238.704C926.866 238.704 925.544 239.557 924.349 241.264C923.24 242.971 922.258 245.019 921.405 247.408C920.552 249.797 919.869 252.059 919.357 254.192C918.93 256.325 918.674 257.819 918.589 258.672C918.504 259.611 918.376 261.061 918.205 263.024C918.034 264.901 917.949 266.992 917.949 269.296C917.949 272.197 918.12 275.099 918.461 278C918.888 280.901 919.613 283.333 920.637 285.296C921.661 287.259 923.154 288.24 925.117 288.24Z" fill="white"/>
<ellipse cx="937.5" cy="437.5" rx="18.5" ry="19.5" fill="#E25529"/>
<ellipse cx="986.5" cy="384.5" rx="18.5" ry="19.5" fill="#E25529"/>
<ellipse cx="557.5" cy="146.5" rx="18.5" ry="19.5" fill="#E25529"/>
<path d="M69.125 450H20.5625V448.75C25.6875 444.208 30.8125 439.146 35.9375 433.562C41.1042 427.979 45.5208 422.688 49.1875 417.688C54.3542 410.688 58.0625 404.646 60.3125 399.562C62.6042 394.479 63.75 389.729 63.75 385.312C63.75 379.354 61.8333 374.312 58 370.188C54.7917 366.771 50.9583 365.062 46.5 365.062C42.625 365.062 39.2292 366.271 36.3125 368.688C34.3125 370.271 32.7708 372.312 31.6875 374.812C30.6042 377.312 30.0625 380.042 30.0625 383C30.0625 387.833 31.6875 391.833 34.9375 395C36.3542 396.417 37.9167 397.521 39.625 398.312C41.375 399.062 43.1042 399.438 44.8125 399.438C45.1458 399.438 45.6458 399.417 46.3125 399.375L46.6875 400.438C43.6458 402.021 41 402.812 38.75 402.812C35.2083 402.812 32.0417 401.5 29.25 398.875C27.5417 397.292 26.2292 395.333 25.3125 393C24.3958 390.667 23.9375 388.167 23.9375 385.5C23.9375 379.125 26.2292 373.896 30.8125 369.812C35.5625 365.646 41.5417 363.562 48.75 363.562C52.6667 363.562 56.2917 364.229 59.625 365.562C63 366.854 65.8125 368.729 68.0625 371.188C70.1042 373.354 71.6667 375.896 72.75 378.812C73.8333 381.729 74.375 384.771 74.375 387.938C74.375 394.188 72.1875 400.583 67.8125 407.125C65.6875 410.25 63.125 413.354 60.125 416.438C57.125 419.479 52.9583 423.229 47.625 427.688C40.7917 433.312 35.8958 437.479 32.9375 440.188H55.5C59.2917 440.188 61.9792 439.958 63.5625 439.5C65.6875 438.917 67.4583 437.854 68.875 436.312C70.4583 434.604 71.7292 432.167 72.6875 429L74.0625 429.25L69.125 450ZM110.438 363.562C114.812 363.562 118.896 365.542 122.688 369.5C124.562 371.417 126.417 373.917 128.25 377C130.083 380.083 131.646 383.229 132.938 386.438C135.771 393.771 137.188 400.729 137.188 407.312C137.188 413.896 135.771 420.875 132.938 428.25C131.646 431.5 130.083 434.646 128.25 437.688C126.417 440.729 124.562 443.208 122.688 445.125C118.854 449.125 114.771 451.125 110.438 451.125C106.146 451.125 102.062 449.125 98.1875 445.125C96.3542 443.208 94.5 440.729 92.625 437.688C90.7917 434.646 89.25 431.5 88 428.25C85.125 420.833 83.6875 413.854 83.6875 407.312C83.6875 400.729 85.125 393.771 88 386.438C89.25 383.229 90.7917 380.083 92.625 377C94.5 373.917 96.3542 371.417 98.1875 369.5C102.021 365.542 106.104 363.562 110.438 363.562ZM110.438 365.062C108.771 365.062 107.125 365.708 105.5 367C103.917 368.25 102.5 370 101.25 372.25C100.292 373.958 99.3333 376.271 98.375 379.188C97.4167 382.062 96.625 384.917 96 387.75C94.6667 394.292 94 400.812 94 407.312C94 413.812 94.6667 420.333 96 426.875C96.625 429.792 97.4167 432.688 98.375 435.562C99.3333 438.438 100.292 440.708 101.25 442.375C102.542 444.708 103.979 446.5 105.562 447.75C107.188 448.958 108.875 449.562 110.625 449.562C112.167 449.562 113.75 448.938 115.375 447.688C117 446.396 118.438 444.625 119.688 442.375C120.604 440.708 121.542 438.438 122.5 435.562C123.5 432.688 124.292 429.792 124.875 426.875C126.25 420.292 126.938 413.771 126.938 407.312C126.938 400.854 126.25 394.333 124.875 387.75C124.292 384.917 123.5 382.062 122.5 379.188C121.542 376.271 120.604 373.958 119.688 372.25C118.438 370 117 368.25 115.375 367C113.792 365.708 112.146 365.062 110.438 365.062ZM69.125 530H20.5625V528.75C25.6875 524.208 30.8125 519.146 35.9375 513.562C41.1042 507.979 45.5208 502.688 49.1875 497.688C54.3542 490.688 58.0625 484.646 60.3125 479.562C62.6042 474.479 63.75 469.729 63.75 465.312C63.75 459.354 61.8333 454.312 58 450.188C54.7917 446.771 50.9583 445.062 46.5 445.062C42.625 445.062 39.2292 446.271 36.3125 448.688C34.3125 450.271 32.7708 452.312 31.6875 454.812C30.6042 457.312 30.0625 460.042 30.0625 463C30.0625 467.833 31.6875 471.833 34.9375 475C36.3542 476.417 37.9167 477.521 39.625 478.312C41.375 479.062 43.1042 479.438 44.8125 479.438C45.1458 479.438 45.6458 479.417 46.3125 479.375L46.6875 480.438C43.6458 482.021 41 482.812 38.75 482.812C35.2083 482.812 32.0417 481.5 29.25 478.875C27.5417 477.292 26.2292 475.333 25.3125 473C24.3958 470.667 23.9375 468.167 23.9375 465.5C23.9375 459.125 26.2292 453.896 30.8125 449.812C35.5625 445.646 41.5417 443.562 48.75 443.562C52.6667 443.562 56.2917 444.229 59.625 445.562C63 446.854 65.8125 448.729 68.0625 451.188C70.1042 453.354 71.6667 455.896 72.75 458.812C73.8333 461.729 74.375 464.771 74.375 467.938C74.375 474.188 72.1875 480.583 67.8125 487.125C65.6875 490.25 63.125 493.354 60.125 496.438C57.125 499.479 52.9583 503.229 47.625 507.688C40.7917 513.312 35.8958 517.479 32.9375 520.188H55.5C59.2917 520.188 61.9792 519.958 63.5625 519.5C65.6875 518.917 67.4583 517.854 68.875 516.312C70.4583 514.604 71.7292 512.167 72.6875 509L74.0625 509.25L69.125 530ZM114.75 509.688H83.4375V508.312L122.25 444.438H125V507.438C127.792 507.438 129.771 507.271 130.938 506.938C132.104 506.604 133.146 505.875 134.062 504.75C134.729 503.917 135.208 503 135.5 502C135.833 501 136.062 499.646 136.188 497.938L136.25 496.5H137.5V520.312H136.25C136.083 517.771 135.833 515.917 135.5 514.75C135.167 513.542 134.625 512.562 133.875 511.812C133.042 510.979 132.104 510.417 131.062 510.125C130.021 509.833 128.458 509.688 126.375 509.688H125V516.062C125 518.354 125.208 520.25 125.625 521.75C126.042 523.25 126.688 524.5 127.562 525.5C128.438 526.542 129.417 527.271 130.5 527.688C131.583 528.104 133.333 528.458 135.75 528.75V530H104.312V528.75C108.438 528.375 111.146 527.521 112.438 526.188C113.271 525.271 113.854 524.021 114.188 522.438C114.562 520.854 114.75 518.604 114.75 515.688V509.688ZM114.75 507.438V461.5L86.5 507.438H114.75Z" fill="#222222"/>
<path d="M291.227 383.105L291.559 383.301C291.09 384.668 290.016 385.352 288.336 385.352C287.411 385.352 286.643 385.124 286.031 384.668C285.628 384.368 285.211 383.848 284.781 383.105C283.909 383.887 283.251 384.401 282.809 384.648C281.962 385.117 280.979 385.352 279.859 385.352C278.427 385.352 277.288 385.007 276.441 384.316C275.608 383.626 275.191 382.695 275.191 381.523C275.191 380.443 275.536 379.538 276.227 378.809C276.617 378.405 277.066 378.086 277.574 377.852C278.082 377.604 278.818 377.357 279.781 377.109C280.914 376.823 281.747 376.582 282.281 376.387C282.828 376.191 283.284 375.957 283.648 375.684C284.065 375.384 284.352 375.033 284.508 374.629C284.664 374.225 284.742 373.665 284.742 372.949C284.742 371.426 284.456 370.312 283.883 369.609C283.622 369.284 283.284 369.023 282.867 368.828C282.464 368.633 282.04 368.535 281.598 368.535C281.064 368.535 280.589 368.672 280.172 368.945C279.755 369.219 279.443 369.596 279.234 370.078L278.746 371.211C278.486 371.823 278.017 372.129 277.34 372.129C276.897 372.129 276.526 371.986 276.227 371.699C275.927 371.4 275.777 371.029 275.777 370.586C275.777 369.922 276.246 369.362 277.184 368.906C277.691 368.672 278.316 368.483 279.059 368.34C279.814 368.184 280.549 368.105 281.266 368.105C282.073 368.105 282.913 368.21 283.785 368.418C284.658 368.626 285.387 368.893 285.973 369.219C286.819 369.701 287.346 370.326 287.555 371.094C287.659 371.484 287.711 372.142 287.711 373.066V380.293C287.711 381.517 287.763 382.35 287.867 382.793C288.089 383.717 288.622 384.18 289.469 384.18C289.872 384.18 290.185 384.108 290.406 383.965C290.641 383.822 290.914 383.535 291.227 383.105ZM284.781 375.41C284.078 375.996 283.303 376.51 282.457 376.953C281.507 377.461 280.849 377.845 280.484 378.105C280.12 378.366 279.788 378.678 279.488 379.043C278.876 379.798 278.57 380.677 278.57 381.68C278.57 382.539 278.805 383.249 279.273 383.809C279.755 384.368 280.361 384.648 281.09 384.648C281.728 384.648 282.327 384.453 282.887 384.062C283.46 383.659 283.889 383.125 284.176 382.461C284.579 381.589 284.781 380.326 284.781 378.672V375.41ZM297.145 368.066C297.327 368.822 297.418 369.525 297.418 370.176V370.488C299.033 368.9 300.953 368.105 303.18 368.105C304.846 368.105 306.188 368.496 307.203 369.277C308.206 370.046 308.707 371.139 308.707 372.559V380.84C308.707 381.725 308.759 382.376 308.863 382.793C308.967 383.197 309.169 383.535 309.469 383.809C309.833 384.16 310.504 384.427 311.48 384.609V385H302.867V384.609C303.648 384.505 304.208 384.362 304.547 384.18C304.885 383.984 305.159 383.659 305.367 383.203C305.51 382.904 305.608 382.454 305.66 381.855C305.725 381.243 305.758 380.371 305.758 379.238V375.098C305.758 373.678 305.706 372.637 305.602 371.973C305.51 371.309 305.328 370.775 305.055 370.371C304.755 369.915 304.326 369.564 303.766 369.316C303.206 369.056 302.587 368.926 301.91 368.926C301.181 368.926 300.497 369.069 299.859 369.355C299.234 369.642 298.74 370.033 298.375 370.527C297.984 371.048 297.724 371.641 297.594 372.305C297.477 372.956 297.418 374.043 297.418 375.566V379.395L297.438 380.84C297.438 381.725 297.49 382.376 297.594 382.793C297.698 383.197 297.9 383.535 298.199 383.809C298.564 384.16 299.234 384.427 300.211 384.609V385H291.598V384.609C292.379 384.505 292.939 384.362 293.277 384.18C293.616 383.984 293.889 383.659 294.098 383.203C294.241 382.904 294.339 382.454 294.391 381.855C294.456 381.243 294.488 380.365 294.488 379.219V374.395C294.488 373.053 294.456 372.116 294.391 371.582C294.326 371.035 294.182 370.592 293.961 370.254C293.74 369.889 293.473 369.629 293.16 369.473C292.848 369.303 292.398 369.199 291.812 369.16V368.77L297.145 368.066ZM313.082 376.758C313.082 374.648 313.863 372.767 315.426 371.113C317.327 369.108 319.599 368.105 322.242 368.105C324.885 368.105 327.151 369.108 329.039 371.113C330.602 372.78 331.383 374.668 331.383 376.777C331.383 378.861 330.641 380.716 329.156 382.344C327.333 384.349 325.029 385.352 322.242 385.352C319.456 385.352 317.145 384.349 315.309 382.344C314.592 381.562 314.039 380.69 313.648 379.727C313.271 378.763 313.082 377.773 313.082 376.758ZM316.637 376.543C316.637 378.809 317.145 380.729 318.16 382.305C319.306 384.062 320.706 384.941 322.359 384.941C323.062 384.941 323.746 384.746 324.41 384.355C325.074 383.965 325.647 383.418 326.129 382.715C326.637 381.986 327.047 381.074 327.359 379.98C327.672 378.874 327.828 377.806 327.828 376.777C327.828 375.71 327.659 374.635 327.32 373.555C326.995 372.461 326.552 371.523 325.992 370.742C324.924 369.271 323.616 368.535 322.066 368.535C320.595 368.535 319.326 369.31 318.258 370.859C317.177 372.409 316.637 374.303 316.637 376.543ZM338.16 368.398H343.141V369.141H338.16V380.508C338.16 381.875 338.395 382.852 338.863 383.438C339.111 383.763 339.436 384.017 339.84 384.199C340.243 384.382 340.68 384.473 341.148 384.473C341.734 384.473 342.223 384.355 342.613 384.121C343.004 383.874 343.434 383.431 343.902 382.793L344.195 383.047C343.766 383.828 343.16 384.408 342.379 384.785C341.611 385.163 340.647 385.352 339.488 385.352C337.952 385.352 336.832 385.052 336.129 384.453C335.751 384.141 335.504 383.77 335.387 383.34C335.27 382.897 335.211 382.109 335.211 380.977V369.141H333.121V368.828C333.967 368.555 334.749 368.027 335.465 367.246C335.895 366.764 336.24 366.289 336.5 365.82C336.76 365.339 337.008 364.72 337.242 363.965L337.438 363.32H338.16V368.398ZM349.332 357.559V370.938C349.788 370.378 350.191 369.941 350.543 369.629C350.895 369.316 351.318 369.043 351.812 368.809C352.763 368.34 353.844 368.105 355.055 368.105C356.591 368.105 357.861 368.411 358.863 369.023C359.579 369.479 360.068 370.039 360.328 370.703C360.602 371.354 360.738 372.337 360.738 373.652V379.355L360.758 380.84C360.758 381.725 360.81 382.376 360.914 382.793C361.018 383.197 361.22 383.535 361.52 383.809C361.884 384.16 362.555 384.427 363.531 384.609V385H354.918V384.609C355.608 384.518 356.096 384.408 356.383 384.277C356.682 384.147 356.949 383.926 357.184 383.613C357.418 383.288 357.581 382.845 357.672 382.285C357.763 381.725 357.809 380.898 357.809 379.805V373.613C357.809 372.676 357.737 371.934 357.594 371.387C357.451 370.84 357.21 370.365 356.871 369.961C356.207 369.193 355.27 368.809 354.059 368.809C350.908 368.809 349.332 371.296 349.332 376.27V379.395L349.352 380.84C349.352 381.725 349.404 382.376 349.508 382.793C349.612 383.197 349.814 383.535 350.113 383.809C350.478 384.16 351.148 384.427 352.125 384.609V385H343.512V384.609C344.293 384.505 344.853 384.362 345.191 384.18C345.53 383.984 345.803 383.659 346.012 383.203C346.155 382.904 346.253 382.454 346.305 381.855C346.37 381.243 346.402 380.365 346.402 379.219V363.887C346.402 362.559 346.37 361.621 346.305 361.074C346.24 360.527 346.096 360.085 345.875 359.746C345.654 359.382 345.387 359.121 345.074 358.965C344.762 358.809 344.312 358.711 343.727 358.672V358.262L349.332 357.559ZM368.609 374.375C368.557 375.013 368.531 375.475 368.531 375.762C368.531 376.895 368.694 378.001 369.02 379.082C369.358 380.163 369.814 381.061 370.387 381.777C370.973 382.507 371.695 383.079 372.555 383.496C373.427 383.913 374.339 384.121 375.289 384.121C375.992 384.121 376.656 384.004 377.281 383.77C377.919 383.535 378.447 383.21 378.863 382.793C379.332 382.337 379.736 381.608 380.074 380.605L380.465 380.742C380.126 382.266 379.397 383.418 378.277 384.199C377.171 384.967 375.693 385.352 373.844 385.352C372.242 385.352 370.868 385.098 369.723 384.59C368.577 384.082 367.607 383.301 366.812 382.246C365.706 380.775 365.152 378.965 365.152 376.816C365.152 373.887 366.201 371.589 368.297 369.922C369.82 368.711 371.559 368.105 373.512 368.105C374.553 368.105 375.517 368.294 376.402 368.672C377.288 369.036 378.036 369.57 378.648 370.273C379.599 371.367 380.074 372.734 380.074 374.375H368.609ZM377.164 373.613C377.073 372.311 376.832 371.309 376.441 370.605C376.09 369.967 375.621 369.466 375.035 369.102C374.449 368.724 373.824 368.535 373.16 368.535C372.04 368.535 371.057 369.017 370.211 369.98C369.378 370.944 368.883 372.155 368.727 373.613H377.164ZM388.102 371.113C388.57 370.293 389.098 369.674 389.684 369.258C390.764 368.49 391.995 368.105 393.375 368.105C394.221 368.105 394.866 368.294 395.309 368.672C395.712 369.01 395.914 369.427 395.914 369.922C395.914 370.286 395.79 370.586 395.543 370.82C395.309 371.055 395.003 371.172 394.625 371.172C394.182 371.172 393.798 370.99 393.473 370.625L392.867 369.961C392.385 369.453 391.819 369.199 391.168 369.199C390.283 369.199 389.592 369.772 389.098 370.918C388.603 372.064 388.355 373.659 388.355 375.703V379.355L388.375 380.84C388.375 381.725 388.427 382.376 388.531 382.793C388.635 383.197 388.837 383.535 389.137 383.809C389.501 384.16 390.172 384.427 391.148 384.609V385H382.535V384.609C383.316 384.505 383.876 384.362 384.215 384.18C384.553 383.984 384.827 383.659 385.035 383.203C385.178 382.904 385.276 382.454 385.328 381.855C385.393 381.243 385.426 380.365 385.426 379.219V374.395C385.426 373.053 385.393 372.116 385.328 371.582C385.263 371.035 385.12 370.592 384.898 370.254C384.677 369.889 384.41 369.629 384.098 369.473C383.785 369.303 383.336 369.199 382.75 369.16V368.77L387.77 368.066C387.991 369.251 388.102 370.267 388.102 371.113ZM420.504 385.332C420.335 384.551 420.25 383.75 420.25 382.93C418.622 384.544 416.695 385.352 414.469 385.352C412.841 385.352 411.533 384.954 410.543 384.16C409.579 383.379 409.098 382.272 409.098 380.84V374.043L409.078 372.559C409.078 371.673 409.026 371.029 408.922 370.625C408.818 370.221 408.622 369.876 408.336 369.59C407.958 369.238 407.281 368.978 406.305 368.809V368.398H412.027V378.301C412.027 379.694 412.073 380.729 412.164 381.406C412.268 382.07 412.451 382.617 412.711 383.047C412.997 383.49 413.408 383.841 413.941 384.102C414.475 384.349 415.074 384.473 415.738 384.473C416.467 384.473 417.151 384.329 417.789 384.043C418.427 383.757 418.928 383.366 419.293 382.871C419.671 382.363 419.918 381.777 420.035 381.113C420.165 380.449 420.23 379.355 420.23 377.832V374.004L420.211 372.559C420.211 371.673 420.159 371.029 420.055 370.625C419.964 370.221 419.768 369.876 419.469 369.59C419.104 369.238 418.427 368.978 417.438 368.809V368.398H423.16V379.004C423.16 380.345 423.193 381.289 423.258 381.836C423.336 382.37 423.479 382.806 423.688 383.145C423.922 383.509 424.195 383.776 424.508 383.945C424.82 384.102 425.27 384.199 425.855 384.238V384.629L420.504 385.332ZM432.457 368.066C432.639 368.822 432.73 369.525 432.73 370.176V370.488C434.345 368.9 436.266 368.105 438.492 368.105C440.159 368.105 441.5 368.496 442.516 369.277C443.518 370.046 444.02 371.139 444.02 372.559V380.84C444.02 381.725 444.072 382.376 444.176 382.793C444.28 383.197 444.482 383.535 444.781 383.809C445.146 384.16 445.816 384.427 446.793 384.609V385H438.18V384.609C438.961 384.505 439.521 384.362 439.859 384.18C440.198 383.984 440.471 383.659 440.68 383.203C440.823 382.904 440.921 382.454 440.973 381.855C441.038 381.243 441.07 380.371 441.07 379.238V375.098C441.07 373.678 441.018 372.637 440.914 371.973C440.823 371.309 440.641 370.775 440.367 370.371C440.068 369.915 439.638 369.564 439.078 369.316C438.518 369.056 437.9 368.926 437.223 368.926C436.493 368.926 435.81 369.069 435.172 369.355C434.547 369.642 434.052 370.033 433.688 370.527C433.297 371.048 433.036 371.641 432.906 372.305C432.789 372.956 432.73 374.043 432.73 375.566V379.395L432.75 380.84C432.75 381.725 432.802 382.376 432.906 382.793C433.01 383.197 433.212 383.535 433.512 383.809C433.876 384.16 434.547 384.427 435.523 384.609V385H426.91V384.609C427.691 384.505 428.251 384.362 428.59 384.18C428.928 383.984 429.202 383.659 429.41 383.203C429.553 382.904 429.651 382.454 429.703 381.855C429.768 381.243 429.801 380.365 429.801 379.219V374.395C429.801 373.053 429.768 372.116 429.703 371.582C429.638 371.035 429.495 370.592 429.273 370.254C429.052 369.889 428.785 369.629 428.473 369.473C428.16 369.303 427.711 369.199 427.125 369.16V368.77L432.457 368.066ZM447.945 368.77L453.551 368.066V379.355L453.57 380.84C453.57 381.725 453.622 382.376 453.727 382.793C453.831 383.197 454.033 383.535 454.332 383.809C454.697 384.16 455.367 384.427 456.344 384.609V385H447.73V384.609C448.512 384.505 449.072 384.362 449.41 384.18C449.749 383.984 450.022 383.659 450.23 383.203C450.374 382.904 450.471 382.454 450.523 381.855C450.589 381.243 450.621 380.365 450.621 379.219V374.395C450.621 373.053 450.589 372.116 450.523 371.582C450.458 371.035 450.315 370.592 450.094 370.254C449.872 369.889 449.605 369.629 449.293 369.473C448.98 369.303 448.531 369.199 447.945 369.16V368.77ZM452.008 361.094C451.5 361.094 451.077 360.931 450.738 360.605C450.413 360.28 450.25 359.87 450.25 359.375C450.25 358.893 450.419 358.49 450.758 358.164C451.096 357.826 451.513 357.656 452.008 357.656C452.503 357.656 452.919 357.826 453.258 358.164C453.596 358.49 453.766 358.893 453.766 359.375C453.766 359.87 453.596 360.28 453.258 360.605C452.932 360.931 452.516 361.094 452.008 361.094ZM473.375 383.359L473.395 386.953V388.301C473.395 389.186 473.447 389.831 473.551 390.234C473.655 390.651 473.857 391.003 474.156 391.289C474.521 391.641 475.191 391.901 476.168 392.07V392.461H467.555V392.07C468.336 391.966 468.896 391.823 469.234 391.641C469.573 391.458 469.846 391.139 470.055 390.684C470.198 390.384 470.296 389.928 470.348 389.316C470.413 388.704 470.445 387.832 470.445 386.699V373.203C470.445 371.732 470.211 370.684 469.742 370.059C469.286 369.434 468.512 369.121 467.418 369.121V368.633L473.102 367.832C473.245 368.457 473.316 369.03 473.316 369.551V369.922C474.28 369.271 475.185 368.809 476.031 368.535C476.878 368.249 477.796 368.105 478.785 368.105C480.764 368.105 482.457 368.698 483.863 369.883C484.749 370.638 485.432 371.582 485.914 372.715C486.396 373.848 486.637 375.098 486.637 376.465C486.637 377.884 486.376 379.206 485.855 380.43C485.348 381.654 484.618 382.663 483.668 383.457C482.184 384.72 480.419 385.352 478.375 385.352C477.398 385.352 476.552 385.208 475.836 384.922C475.133 384.635 474.312 384.115 473.375 383.359ZM473.375 376.875C473.375 378.672 473.453 380.026 473.609 380.938C473.766 381.849 474.046 382.585 474.449 383.145C474.814 383.639 475.289 384.036 475.875 384.336C476.474 384.635 477.079 384.785 477.691 384.785C479.072 384.785 480.276 384.134 481.305 382.832C481.93 382.051 482.411 381.126 482.75 380.059C483.089 378.991 483.258 377.878 483.258 376.719C483.258 375.599 483.095 374.505 482.77 373.438C482.457 372.357 482.014 371.432 481.441 370.664C480.465 369.336 479.273 368.672 477.867 368.672C477.177 368.672 476.526 368.841 475.914 369.18C475.302 369.518 474.814 369.98 474.449 370.566C474.046 371.191 473.766 371.973 473.609 372.91C473.453 373.835 473.375 375.156 473.375 376.875ZM493.961 371.113C494.43 370.293 494.957 369.674 495.543 369.258C496.624 368.49 497.854 368.105 499.234 368.105C500.081 368.105 500.725 368.294 501.168 368.672C501.572 369.01 501.773 369.427 501.773 369.922C501.773 370.286 501.65 370.586 501.402 370.82C501.168 371.055 500.862 371.172 500.484 371.172C500.042 371.172 499.658 370.99 499.332 370.625L498.727 369.961C498.245 369.453 497.678 369.199 497.027 369.199C496.142 369.199 495.452 369.772 494.957 370.918C494.462 372.064 494.215 373.659 494.215 375.703V379.355L494.234 380.84C494.234 381.725 494.286 382.376 494.391 382.793C494.495 383.197 494.697 383.535 494.996 383.809C495.361 384.16 496.031 384.427 497.008 384.609V385H488.395V384.609C489.176 384.505 489.736 384.362 490.074 384.18C490.413 383.984 490.686 383.659 490.895 383.203C491.038 382.904 491.135 382.454 491.188 381.855C491.253 381.243 491.285 380.365 491.285 379.219V374.395C491.285 373.053 491.253 372.116 491.188 371.582C491.122 371.035 490.979 370.592 490.758 370.254C490.536 369.889 490.27 369.629 489.957 369.473C489.645 369.303 489.195 369.199 488.609 369.16V368.77L493.629 368.066C493.85 369.251 493.961 370.267 493.961 371.113ZM502.965 376.758C502.965 374.648 503.746 372.767 505.309 371.113C507.21 369.108 509.482 368.105 512.125 368.105C514.768 368.105 517.034 369.108 518.922 371.113C520.484 372.78 521.266 374.668 521.266 376.777C521.266 378.861 520.523 380.716 519.039 382.344C517.216 384.349 514.911 385.352 512.125 385.352C509.339 385.352 507.027 384.349 505.191 382.344C504.475 381.562 503.922 380.69 503.531 379.727C503.154 378.763 502.965 377.773 502.965 376.758ZM506.52 376.543C506.52 378.809 507.027 380.729 508.043 382.305C509.189 384.062 510.589 384.941 512.242 384.941C512.945 384.941 513.629 384.746 514.293 384.355C514.957 383.965 515.53 383.418 516.012 382.715C516.52 381.986 516.93 381.074 517.242 379.98C517.555 378.874 517.711 377.806 517.711 376.777C517.711 375.71 517.542 374.635 517.203 373.555C516.878 372.461 516.435 371.523 515.875 370.742C514.807 369.271 513.499 368.535 511.949 368.535C510.478 368.535 509.208 369.31 508.141 370.859C507.06 372.409 506.52 374.303 506.52 376.543ZM528.59 368.066V382.91C528.59 384.629 528.583 385.671 528.57 386.035C528.492 387.389 528.238 388.483 527.809 389.316C526.897 391.061 525.257 391.934 522.887 391.934C521.624 391.934 520.621 391.712 519.879 391.27C519.124 390.827 518.746 390.234 518.746 389.492C518.746 389.089 518.857 388.757 519.078 388.496C519.299 388.236 519.586 388.105 519.938 388.105C520.562 388.105 520.986 388.483 521.207 389.238L521.48 390.176C521.754 391.061 522.333 391.504 523.219 391.504C523.674 391.504 524.078 391.38 524.43 391.133C524.794 390.898 525.068 390.553 525.25 390.098C525.393 389.759 525.497 389.232 525.562 388.516C525.628 387.799 525.66 386.842 525.66 385.645V373.457C525.66 371.986 525.426 370.938 524.957 370.312C524.501 369.674 523.727 369.355 522.633 369.355V368.867L528.59 368.066ZM527.047 361.094C526.539 361.094 526.116 360.931 525.777 360.605C525.439 360.28 525.27 359.87 525.27 359.375C525.27 358.893 525.439 358.49 525.777 358.164C526.129 357.826 526.552 357.656 527.047 357.656C527.542 357.656 527.958 357.826 528.297 358.164C528.635 358.49 528.805 358.893 528.805 359.375C528.805 359.87 528.635 360.28 528.297 360.605C527.971 360.931 527.555 361.094 527.047 361.094ZM535.602 374.375C535.549 375.013 535.523 375.475 535.523 375.762C535.523 376.895 535.686 378.001 536.012 379.082C536.35 380.163 536.806 381.061 537.379 381.777C537.965 382.507 538.688 383.079 539.547 383.496C540.419 383.913 541.331 384.121 542.281 384.121C542.984 384.121 543.648 384.004 544.273 383.77C544.911 383.535 545.439 383.21 545.855 382.793C546.324 382.337 546.728 381.608 547.066 380.605L547.457 380.742C547.118 382.266 546.389 383.418 545.27 384.199C544.163 384.967 542.685 385.352 540.836 385.352C539.234 385.352 537.861 385.098 536.715 384.59C535.569 384.082 534.599 383.301 533.805 382.246C532.698 380.775 532.145 378.965 532.145 376.816C532.145 373.887 533.193 371.589 535.289 369.922C536.812 368.711 538.551 368.105 540.504 368.105C541.546 368.105 542.509 368.294 543.395 368.672C544.28 369.036 545.029 369.57 545.641 370.273C546.591 371.367 547.066 372.734 547.066 374.375H535.602ZM544.156 373.613C544.065 372.311 543.824 371.309 543.434 370.605C543.082 369.967 542.613 369.466 542.027 369.102C541.441 368.724 540.816 368.535 540.152 368.535C539.033 368.535 538.049 369.017 537.203 369.98C536.37 370.944 535.875 372.155 535.719 373.613H544.156ZM564.137 381.309L564.527 381.445C564.072 382.826 563.375 383.822 562.438 384.434C561.5 385.046 560.211 385.352 558.57 385.352C555.94 385.352 553.876 384.57 552.379 383.008C550.921 381.471 550.191 379.531 550.191 377.188C550.191 376.042 550.393 374.909 550.797 373.789C551.201 372.669 551.754 371.712 552.457 370.918C553.251 370.007 554.221 369.31 555.367 368.828C556.526 368.346 557.789 368.105 559.156 368.105C561.044 368.105 562.522 368.529 563.59 369.375C564.241 369.896 564.566 370.469 564.566 371.094C564.566 371.51 564.43 371.862 564.156 372.148C563.883 372.422 563.551 372.559 563.16 372.559C562.314 372.559 561.689 371.94 561.285 370.703C561.103 370.13 560.953 369.74 560.836 369.531C560.732 369.323 560.576 369.141 560.367 368.984C559.964 368.685 559.469 368.535 558.883 368.535C558.115 368.535 557.405 368.75 556.754 369.18C556.181 369.557 555.693 370.033 555.289 370.605C554.898 371.165 554.553 371.875 554.254 372.734C553.798 374.049 553.57 375.339 553.57 376.602C553.57 377.76 553.779 378.893 554.195 380C554.612 381.107 555.178 382.031 555.895 382.773C557.014 383.945 558.329 384.531 559.84 384.531C561.09 384.531 562.125 384.134 562.945 383.34C563.362 382.923 563.759 382.246 564.137 381.309ZM571.207 368.398H576.188V369.141H571.207V380.508C571.207 381.875 571.441 382.852 571.91 383.438C572.158 383.763 572.483 384.017 572.887 384.199C573.29 384.382 573.727 384.473 574.195 384.473C574.781 384.473 575.27 384.355 575.66 384.121C576.051 383.874 576.48 383.431 576.949 382.793L577.242 383.047C576.812 383.828 576.207 384.408 575.426 384.785C574.658 385.163 573.694 385.352 572.535 385.352C570.999 385.352 569.879 385.052 569.176 384.453C568.798 384.141 568.551 383.77 568.434 383.34C568.316 382.897 568.258 382.109 568.258 380.977V369.141H566.168V368.828C567.014 368.555 567.796 368.027 568.512 367.246C568.941 366.764 569.286 366.289 569.547 365.82C569.807 365.339 570.055 364.72 570.289 363.965L570.484 363.32H571.207V368.398Z" fill="#222222"/>
<path d="M14.7266 104.625C14.5964 103.987 14.5312 103.31 14.5312 102.594C13.5677 103.219 12.6562 103.668 11.7969 103.941C10.9505 104.215 10.0391 104.352 9.0625 104.352C7.08333 104.352 5.39062 103.759 3.98438 102.574C3.08594 101.819 2.39583 100.875 1.91406 99.7422C1.43229 98.5964 1.19141 97.3464 1.19141 95.9922C1.19141 94.5599 1.45182 93.2383 1.97266 92.0273C2.49349 90.8034 3.22266 89.7878 4.16016 88.9805C5.64453 87.7305 7.40885 87.1055 9.45312 87.1055C10.4427 87.1055 11.2891 87.2487 11.9922 87.5352C12.6953 87.8216 13.5156 88.3424 14.4531 89.0977V81.8516C14.4531 80.4323 14.2188 79.4102 13.75 78.7852C13.2812 78.1602 12.5065 77.8477 11.4258 77.8477V77.3789L17.3828 76.6172V99.2539C17.3828 100.725 17.6172 101.773 18.0859 102.398C18.5547 103.023 19.3294 103.336 20.4102 103.336V103.824L14.7266 104.625ZM14.4531 95.5625C14.4531 93.7526 14.375 92.3984 14.2188 91.5C14.0625 90.5885 13.7826 89.8464 13.3789 89.2734C13.0273 88.7786 12.5521 88.3815 11.9531 88.082C11.3672 87.7826 10.7617 87.6328 10.1367 87.6328C8.74349 87.6328 7.53906 88.2839 6.52344 89.5859C5.91146 90.3672 5.42969 91.2982 5.07812 92.3789C4.73958 93.4596 4.57031 94.5729 4.57031 95.7188C4.57031 96.8385 4.73307 97.9388 5.05859 99.0195C5.38411 100.087 5.82682 101.005 6.38672 101.773C7.36328 103.102 8.5612 103.766 9.98047 103.766C10.6576 103.766 11.3021 103.596 11.9141 103.258C12.526 102.919 13.0208 102.451 13.3984 101.852C13.7891 101.227 14.0625 100.458 14.2188 99.5469C14.375 98.6224 14.4531 97.2943 14.4531 95.5625ZM21.7188 87.7695L27.3242 87.0664V98.3555L27.3438 99.8398C27.3438 100.725 27.3958 101.376 27.5 101.793C27.6042 102.197 27.806 102.535 28.1055 102.809C28.4701 103.16 29.1406 103.427 30.1172 103.609V104H21.5039V103.609C22.2852 103.505 22.8451 103.362 23.1836 103.18C23.5221 102.984 23.7956 102.659 24.0039 102.203C24.1471 101.904 24.2448 101.454 24.2969 100.855C24.362 100.243 24.3945 99.3646 24.3945 98.2188V93.3945C24.3945 92.0534 24.362 91.1159 24.2969 90.582C24.2318 90.0352 24.0885 89.5924 23.8672 89.2539C23.6458 88.8893 23.3789 88.6289 23.0664 88.4727C22.7539 88.3034 22.3047 88.1992 21.7188 88.1602V87.7695ZM25.7812 80.0938C25.2734 80.0938 24.8503 79.931 24.5117 79.6055C24.1862 79.2799 24.0234 78.8698 24.0234 78.375C24.0234 77.8932 24.1927 77.4896 24.5312 77.1641C24.8698 76.8255 25.2865 76.6562 25.7812 76.6562C26.276 76.6562 26.6927 76.8255 27.0312 77.1641C27.3698 77.4896 27.5391 77.8932 27.5391 78.375C27.5391 78.8698 27.3698 79.2799 27.0312 79.6055C26.7057 79.931 26.2891 80.0938 25.7812 80.0938ZM36.0742 105.66L35.7227 105.758C35.5013 105.393 35.2799 105.139 35.0586 104.996C34.8372 104.853 34.5638 104.781 34.2383 104.781C33.6914 104.781 33.2422 104.99 32.8906 105.406C32.5521 105.823 32.3828 106.363 32.3828 107.027C32.3828 108.082 32.9102 108.948 33.9648 109.625C35.0195 110.302 36.3672 110.641 38.0078 110.641C39.7526 110.641 41.1589 110.263 42.2266 109.508C43.3073 108.766 43.8477 107.796 43.8477 106.598C43.8477 105.634 43.4896 104.892 42.7734 104.371C42.0573 103.863 41.0352 103.609 39.707 103.609H36.6016C35.3255 103.609 34.2969 103.31 33.5156 102.711C32.7083 102.086 32.3047 101.337 32.3047 100.465C32.3047 99.5404 32.7344 98.8112 33.5938 98.2773C34.0365 98.0169 34.8438 97.737 36.0156 97.4375C34.8828 96.9167 34.0039 96.2331 33.3789 95.3867C32.7539 94.5273 32.4414 93.5833 32.4414 92.5547C32.4414 91.2396 32.9297 90.0677 33.9062 89.0391C34.4792 88.4271 35.1562 87.9518 35.9375 87.6133C36.7188 87.2747 37.5195 87.1055 38.3398 87.1055C39.5898 87.1055 40.8659 87.5482 42.168 88.4336C42.7799 87.9518 43.3268 87.6133 43.8086 87.418C44.3034 87.2096 44.8372 87.1055 45.4102 87.1055C46.0482 87.1055 46.5625 87.2422 46.9531 87.5156C47.4219 87.8542 47.6562 88.2708 47.6562 88.7656C47.6562 89.0651 47.5651 89.319 47.3828 89.5273C47.2005 89.7227 46.9727 89.8203 46.6992 89.8203C46.2826 89.8203 45.9049 89.599 45.5664 89.1562L45.1172 88.5703C44.8698 88.2578 44.5182 88.1016 44.0625 88.1016C43.5807 88.1016 43.0729 88.3424 42.5391 88.8242C43.5938 90.1133 44.1211 91.4414 44.1211 92.8086C44.1211 94.5143 43.3659 95.862 41.8555 96.8516C41.1003 97.3464 40.2865 97.6784 39.4141 97.8477C39.1536 97.8867 38.3268 97.9518 36.9336 98.043C35.0195 98.1602 34.0625 98.694 34.0625 99.6445C34.0625 100.478 34.8763 100.895 36.5039 100.895H39.7266C40.8594 100.895 41.8164 100.999 42.5977 101.207C43.3789 101.402 44.0625 101.715 44.6484 102.145C45.7943 102.991 46.3672 104.182 46.3672 105.719C46.3672 107.411 45.7031 108.733 44.375 109.684C43.0078 110.66 41.0026 111.148 38.3594 111.148C35.5208 111.148 33.5091 110.576 32.3242 109.43C31.569 108.688 31.1914 107.763 31.1914 106.656C31.1914 105.784 31.4714 105.042 32.0312 104.43C32.5911 103.831 33.2747 103.531 34.082 103.531C34.668 103.531 35.1432 103.707 35.5078 104.059C35.8854 104.41 36.0742 104.872 36.0742 105.445V105.66ZM35.2148 92.6914C35.2148 94.0977 35.5078 95.2435 36.0938 96.1289C36.6927 97.0143 37.4544 97.457 38.3789 97.457C39.3164 97.457 40.0456 97.0208 40.5664 96.1484C41.0872 95.263 41.3477 94.0391 41.3477 92.4766C41.3477 90.862 41.0091 89.5729 40.332 88.6094C39.8372 87.8932 39.1992 87.5352 38.418 87.5352C37.4805 87.5352 36.7253 88.0039 36.1523 88.9414C35.8659 89.4102 35.638 89.9831 35.4688 90.6602C35.2995 91.3372 35.2148 92.0143 35.2148 92.6914ZM47.8906 87.7695L53.4961 87.0664V98.3555L53.5156 99.8398C53.5156 100.725 53.5677 101.376 53.6719 101.793C53.776 102.197 53.9779 102.535 54.2773 102.809C54.6419 103.16 55.3125 103.427 56.2891 103.609V104H47.6758V103.609C48.457 103.505 49.0169 103.362 49.3555 103.18C49.694 102.984 49.9674 102.659 50.1758 102.203C50.319 101.904 50.4167 101.454 50.4688 100.855C50.5339 100.243 50.5664 99.3646 50.5664 98.2188V93.3945C50.5664 92.0534 50.5339 91.1159 50.4688 90.582C50.4036 90.0352 50.2604 89.5924 50.0391 89.2539C49.8177 88.8893 49.5508 88.6289 49.2383 88.4727C48.9258 88.3034 48.4766 88.1992 47.8906 88.1602V87.7695ZM51.9531 80.0938C51.4453 80.0938 51.0221 79.931 50.6836 79.6055C50.3581 79.2799 50.1953 78.8698 50.1953 78.375C50.1953 77.8932 50.3646 77.4896 50.7031 77.1641C51.0417 76.8255 51.4583 76.6562 51.9531 76.6562C52.4479 76.6562 52.8646 76.8255 53.2031 77.1641C53.5417 77.4896 53.7109 77.8932 53.7109 78.375C53.7109 78.8698 53.5417 79.2799 53.2031 79.6055C52.8776 79.931 52.4609 80.0938 51.9531 80.0938ZM62.4023 87.3984H67.3828V88.1406H62.4023V99.5078C62.4023 100.875 62.6367 101.852 63.1055 102.438C63.3529 102.763 63.6784 103.017 64.082 103.199C64.4857 103.382 64.9219 103.473 65.3906 103.473C65.9766 103.473 66.4648 103.355 66.8555 103.121C67.2461 102.874 67.6758 102.431 68.1445 101.793L68.4375 102.047C68.0078 102.828 67.4023 103.408 66.6211 103.785C65.8529 104.163 64.8893 104.352 63.7305 104.352C62.194 104.352 61.0742 104.052 60.3711 103.453C59.9935 103.141 59.7461 102.77 59.6289 102.34C59.5117 101.897 59.4531 101.109 59.4531 99.9766V88.1406H57.3633V87.8281C58.2096 87.5547 58.9909 87.0273 59.707 86.2461C60.1367 85.7643 60.4818 85.2891 60.7422 84.8203C61.0026 84.3385 61.25 83.7201 61.4844 82.9648L61.6797 82.3203H62.4023V87.3984ZM84.4531 102.105L84.7852 102.301C84.3164 103.668 83.2422 104.352 81.5625 104.352C80.638 104.352 79.8698 104.124 79.2578 103.668C78.8542 103.368 78.4375 102.848 78.0078 102.105C77.1354 102.887 76.4779 103.401 76.0352 103.648C75.1888 104.117 74.2057 104.352 73.0859 104.352C71.6536 104.352 70.5143 104.007 69.668 103.316C68.8346 102.626 68.418 101.695 68.418 100.523C68.418 99.4427 68.763 98.5378 69.4531 97.8086C69.8438 97.4049 70.293 97.0859 70.8008 96.8516C71.3086 96.6042 72.0443 96.3568 73.0078 96.1094C74.1406 95.8229 74.974 95.582 75.5078 95.3867C76.0547 95.1914 76.5104 94.957 76.875 94.6836C77.2917 94.3841 77.5781 94.0326 77.7344 93.6289C77.8906 93.2253 77.9688 92.6654 77.9688 91.9492C77.9688 90.4258 77.6823 89.3125 77.1094 88.6094C76.849 88.2839 76.5104 88.0234 76.0938 87.8281C75.6901 87.6328 75.2669 87.5352 74.8242 87.5352C74.2904 87.5352 73.8151 87.6719 73.3984 87.9453C72.9818 88.2188 72.6693 88.5964 72.4609 89.0781L71.9727 90.2109C71.7122 90.8229 71.2435 91.1289 70.5664 91.1289C70.1237 91.1289 69.7526 90.9857 69.4531 90.6992C69.1536 90.3997 69.0039 90.0286 69.0039 89.5859C69.0039 88.9219 69.4727 88.362 70.4102 87.9062C70.918 87.6719 71.543 87.4831 72.2852 87.3398C73.0404 87.1836 73.776 87.1055 74.4922 87.1055C75.2995 87.1055 76.1393 87.2096 77.0117 87.418C77.8841 87.6263 78.6133 87.8932 79.1992 88.2188C80.0456 88.7005 80.5729 89.3255 80.7812 90.0938C80.8854 90.4844 80.9375 91.1419 80.9375 92.0664V99.293C80.9375 100.517 80.9896 101.35 81.0938 101.793C81.3151 102.717 81.849 103.18 82.6953 103.18C83.099 103.18 83.4115 103.108 83.6328 102.965C83.8672 102.822 84.1406 102.535 84.4531 102.105ZM78.0078 94.4102C77.3047 94.9961 76.5299 95.5104 75.6836 95.9531C74.7331 96.4609 74.0755 96.8451 73.7109 97.1055C73.3464 97.3659 73.0143 97.6784 72.7148 98.043C72.1029 98.7982 71.7969 99.6771 71.7969 100.68C71.7969 101.539 72.0312 102.249 72.5 102.809C72.9818 103.368 73.5872 103.648 74.3164 103.648C74.9544 103.648 75.5534 103.453 76.1133 103.062C76.6862 102.659 77.1159 102.125 77.4023 101.461C77.806 100.589 78.0078 99.3255 78.0078 97.6719V94.4102ZM85.0391 77.2617L90.6445 76.5586V98.3555L90.6641 99.8398C90.6641 100.725 90.7161 101.376 90.8203 101.793C90.9245 102.197 91.1263 102.535 91.4258 102.809C91.7904 103.16 92.4609 103.427 93.4375 103.609V104H84.8242V103.609C85.6055 103.505 86.1654 103.362 86.5039 103.18C86.8424 102.984 87.1159 102.659 87.3242 102.203C87.4674 101.904 87.5651 101.454 87.6172 100.855C87.6823 100.243 87.7148 99.3646 87.7148 98.2188V82.8867C87.7148 81.5586 87.6823 80.6211 87.6172 80.0742C87.5521 79.5273 87.4089 79.0846 87.1875 78.7461C86.9661 78.3815 86.6992 78.1211 86.3867 77.9648C86.0742 77.8086 85.625 77.7109 85.0391 77.6719V77.2617ZM110.469 102.359L110.488 105.953V107.301C110.488 108.186 110.54 108.831 110.645 109.234C110.749 109.651 110.951 110.003 111.25 110.289C111.615 110.641 112.285 110.901 113.262 111.07V111.461H104.648V111.07C105.43 110.966 105.99 110.823 106.328 110.641C106.667 110.458 106.94 110.139 107.148 109.684C107.292 109.384 107.389 108.928 107.441 108.316C107.507 107.704 107.539 106.832 107.539 105.699V92.2031C107.539 90.7318 107.305 89.6836 106.836 89.0586C106.38 88.4336 105.605 88.1211 104.512 88.1211V87.6328L110.195 86.832C110.339 87.457 110.41 88.0299 110.41 88.5508V88.9219C111.374 88.2708 112.279 87.8086 113.125 87.5352C113.971 87.2487 114.889 87.1055 115.879 87.1055C117.858 87.1055 119.551 87.6979 120.957 88.8828C121.842 89.638 122.526 90.582 123.008 91.7148C123.49 92.8477 123.73 94.0977 123.73 95.4648C123.73 96.8841 123.47 98.2057 122.949 99.4297C122.441 100.654 121.712 101.663 120.762 102.457C119.277 103.72 117.513 104.352 115.469 104.352C114.492 104.352 113.646 104.208 112.93 103.922C112.227 103.635 111.406 103.115 110.469 102.359ZM110.469 95.875C110.469 97.6719 110.547 99.026 110.703 99.9375C110.859 100.849 111.139 101.585 111.543 102.145C111.908 102.639 112.383 103.036 112.969 103.336C113.568 103.635 114.173 103.785 114.785 103.785C116.165 103.785 117.37 103.134 118.398 101.832C119.023 101.051 119.505 100.126 119.844 99.0586C120.182 97.9909 120.352 96.8776 120.352 95.7188C120.352 94.599 120.189 93.5052 119.863 92.4375C119.551 91.3568 119.108 90.4323 118.535 89.6641C117.559 88.3359 116.367 87.6719 114.961 87.6719C114.271 87.6719 113.62 87.8411 113.008 88.1797C112.396 88.5182 111.908 88.9805 111.543 89.5664C111.139 90.1914 110.859 90.9727 110.703 91.9102C110.547 92.8346 110.469 94.1562 110.469 95.875ZM126.152 95.7578C126.152 93.6484 126.934 91.7669 128.496 90.1133C130.397 88.1081 132.669 87.1055 135.312 87.1055C137.956 87.1055 140.221 88.1081 142.109 90.1133C143.672 91.7799 144.453 93.668 144.453 95.7773C144.453 97.8607 143.711 99.7161 142.227 101.344C140.404 103.349 138.099 104.352 135.312 104.352C132.526 104.352 130.215 103.349 128.379 101.344C127.663 100.562 127.109 99.6901 126.719 98.7266C126.341 97.763 126.152 96.7734 126.152 95.7578ZM129.707 95.543C129.707 97.8086 130.215 99.7292 131.23 101.305C132.376 103.062 133.776 103.941 135.43 103.941C136.133 103.941 136.816 103.746 137.48 103.355C138.145 102.965 138.717 102.418 139.199 101.715C139.707 100.986 140.117 100.074 140.43 98.9805C140.742 97.8737 140.898 96.806 140.898 95.7773C140.898 94.7096 140.729 93.6354 140.391 92.5547C140.065 91.4609 139.622 90.5234 139.062 89.7422C137.995 88.2708 136.686 87.5352 135.137 87.5352C133.665 87.5352 132.396 88.3099 131.328 89.8594C130.247 91.4089 129.707 93.3034 129.707 95.543ZM151.758 90.1133C152.227 89.293 152.754 88.6745 153.34 88.2578C154.421 87.4896 155.651 87.1055 157.031 87.1055C157.878 87.1055 158.522 87.2943 158.965 87.6719C159.368 88.0104 159.57 88.4271 159.57 88.9219C159.57 89.2865 159.447 89.5859 159.199 89.8203C158.965 90.0547 158.659 90.1719 158.281 90.1719C157.839 90.1719 157.454 89.9896 157.129 89.625L156.523 88.9609C156.042 88.4531 155.475 88.1992 154.824 88.1992C153.939 88.1992 153.249 88.7721 152.754 89.918C152.259 91.0638 152.012 92.6589 152.012 94.7031V98.3555L152.031 99.8398C152.031 100.725 152.083 101.376 152.188 101.793C152.292 102.197 152.493 102.535 152.793 102.809C153.158 103.16 153.828 103.427 154.805 103.609V104H146.191V103.609C146.973 103.505 147.533 103.362 147.871 103.18C148.21 102.984 148.483 102.659 148.691 102.203C148.835 101.904 148.932 101.454 148.984 100.855C149.049 100.243 149.082 99.3646 149.082 98.2188V93.3945C149.082 92.0534 149.049 91.1159 148.984 90.582C148.919 90.0352 148.776 89.5924 148.555 89.2539C148.333 88.8893 148.066 88.6289 147.754 88.4727C147.441 88.3034 146.992 88.1992 146.406 88.1602V87.7695L151.426 87.0664C151.647 88.2513 151.758 89.2669 151.758 90.1133ZM165.137 87.3984H170.117V88.1406H165.137V99.5078C165.137 100.875 165.371 101.852 165.84 102.438C166.087 102.763 166.413 103.017 166.816 103.199C167.22 103.382 167.656 103.473 168.125 103.473C168.711 103.473 169.199 103.355 169.59 103.121C169.98 102.874 170.41 102.431 170.879 101.793L171.172 102.047C170.742 102.828 170.137 103.408 169.355 103.785C168.587 104.163 167.624 104.352 166.465 104.352C164.928 104.352 163.809 104.052 163.105 103.453C162.728 103.141 162.48 102.77 162.363 102.34C162.246 101.897 162.188 101.109 162.188 99.9766V88.1406H160.098V87.8281C160.944 87.5547 161.725 87.0273 162.441 86.2461C162.871 85.7643 163.216 85.2891 163.477 84.8203C163.737 84.3385 163.984 83.7201 164.219 82.9648L164.414 82.3203H165.137V87.3984ZM176.309 88.1406V98.3555L176.328 99.8398C176.328 100.725 176.38 101.376 176.484 101.793C176.589 102.197 176.79 102.535 177.09 102.809C177.454 103.16 178.125 103.427 179.102 103.609V104H170.488V103.609C171.27 103.505 171.829 103.362 172.168 103.18C172.507 102.984 172.78 102.659 172.988 102.203C173.132 101.904 173.229 101.454 173.281 100.855C173.346 100.243 173.379 99.3646 173.379 98.2188V88.1406H170.547V87.3984H173.379V82.6328C173.379 81.487 173.522 80.582 173.809 79.918C174.108 79.2539 174.635 78.6419 175.391 78.082C176.068 77.5872 176.895 77.2031 177.871 76.9297C178.861 76.6432 179.902 76.5 180.996 76.5C182.012 76.5 182.826 76.6758 183.438 77.0273C184.049 77.3789 184.355 77.8477 184.355 78.4336C184.355 78.8242 184.225 79.1497 183.965 79.4102C183.717 79.6706 183.411 79.8008 183.047 79.8008C182.695 79.8008 182.389 79.7096 182.129 79.5273C181.868 79.332 181.608 79.0195 181.348 78.5898C180.983 77.9909 180.684 77.6003 180.449 77.418C180.215 77.2227 179.896 77.125 179.492 77.125C178.997 77.125 178.529 77.2292 178.086 77.4375C177.643 77.6328 177.298 77.8932 177.051 78.2188C176.777 78.5833 176.589 79.0651 176.484 79.6641C176.38 80.25 176.328 81.1029 176.328 82.2227V87.3984H180.176V88.1406H176.309ZM182.363 95.7578C182.363 93.6484 183.145 91.7669 184.707 90.1133C186.608 88.1081 188.88 87.1055 191.523 87.1055C194.167 87.1055 196.432 88.1081 198.32 90.1133C199.883 91.7799 200.664 93.668 200.664 95.7773C200.664 97.8607 199.922 99.7161 198.438 101.344C196.615 103.349 194.31 104.352 191.523 104.352C188.737 104.352 186.426 103.349 184.59 101.344C183.874 100.562 183.32 99.6901 182.93 98.7266C182.552 97.763 182.363 96.7734 182.363 95.7578ZM185.918 95.543C185.918 97.8086 186.426 99.7292 187.441 101.305C188.587 103.062 189.987 103.941 191.641 103.941C192.344 103.941 193.027 103.746 193.691 103.355C194.355 102.965 194.928 102.418 195.41 101.715C195.918 100.986 196.328 100.074 196.641 98.9805C196.953 97.8737 197.109 96.806 197.109 95.7773C197.109 94.7096 196.94 93.6354 196.602 92.5547C196.276 91.4609 195.833 90.5234 195.273 89.7422C194.206 88.2708 192.897 87.5352 191.348 87.5352C189.876 87.5352 188.607 88.3099 187.539 89.8594C186.458 91.4089 185.918 93.3034 185.918 95.543ZM202.617 77.2617L208.223 76.5586V98.3555L208.242 99.8398C208.242 100.725 208.294 101.376 208.398 101.793C208.503 102.197 208.704 102.535 209.004 102.809C209.368 103.16 210.039 103.427 211.016 103.609V104H202.402V103.609C203.184 103.505 203.743 103.362 204.082 103.18C204.421 102.984 204.694 102.659 204.902 102.203C205.046 101.904 205.143 101.454 205.195 100.855C205.26 100.243 205.293 99.3646 205.293 98.2188V82.8867C205.293 81.5586 205.26 80.6211 205.195 80.0742C205.13 79.5273 204.987 79.0846 204.766 78.7461C204.544 78.3815 204.277 78.1211 203.965 77.9648C203.652 77.8086 203.203 77.7109 202.617 77.6719V77.2617ZM212.305 87.7695L217.91 87.0664V98.3555L217.93 99.8398C217.93 100.725 217.982 101.376 218.086 101.793C218.19 102.197 218.392 102.535 218.691 102.809C219.056 103.16 219.727 103.427 220.703 103.609V104H212.09V103.609C212.871 103.505 213.431 103.362 213.77 103.18C214.108 102.984 214.382 102.659 214.59 102.203C214.733 101.904 214.831 101.454 214.883 100.855C214.948 100.243 214.98 99.3646 214.98 98.2188V93.3945C214.98 92.0534 214.948 91.1159 214.883 90.582C214.818 90.0352 214.674 89.5924 214.453 89.2539C214.232 88.8893 213.965 88.6289 213.652 88.4727C213.34 88.3034 212.891 88.1992 212.305 88.1602V87.7695ZM216.367 80.0938C215.859 80.0938 215.436 79.931 215.098 79.6055C214.772 79.2799 214.609 78.8698 214.609 78.375C214.609 77.8932 214.779 77.4896 215.117 77.1641C215.456 76.8255 215.872 76.6562 216.367 76.6562C216.862 76.6562 217.279 76.8255 217.617 77.1641C217.956 77.4896 218.125 77.8932 218.125 78.375C218.125 78.8698 217.956 79.2799 217.617 79.6055C217.292 79.931 216.875 80.0938 216.367 80.0938ZM222.441 95.7578C222.441 93.6484 223.223 91.7669 224.785 90.1133C226.686 88.1081 228.958 87.1055 231.602 87.1055C234.245 87.1055 236.51 88.1081 238.398 90.1133C239.961 91.7799 240.742 93.668 240.742 95.7773C240.742 97.8607 240 99.7161 238.516 101.344C236.693 103.349 234.388 104.352 231.602 104.352C228.815 104.352 226.504 103.349 224.668 101.344C223.952 100.562 223.398 99.6901 223.008 98.7266C222.63 97.763 222.441 96.7734 222.441 95.7578ZM225.996 95.543C225.996 97.8086 226.504 99.7292 227.52 101.305C228.665 103.062 230.065 103.941 231.719 103.941C232.422 103.941 233.105 103.746 233.77 103.355C234.434 102.965 235.007 102.418 235.488 101.715C235.996 100.986 236.406 100.074 236.719 98.9805C237.031 97.8737 237.188 96.806 237.188 95.7773C237.188 94.7096 237.018 93.6354 236.68 92.5547C236.354 91.4609 235.911 90.5234 235.352 89.7422C234.284 88.2708 232.975 87.5352 231.426 87.5352C229.954 87.5352 228.685 88.3099 227.617 89.8594C226.536 91.4089 225.996 93.3034 225.996 95.543Z" fill="#222222"/>
<path d="M1054.12 87H1005.56V85.75C1010.69 81.2083 1015.81 76.1458 1020.94 70.5625C1026.1 64.9792 1030.52 59.6875 1034.19 54.6875C1039.35 47.6875 1043.06 41.6458 1045.31 36.5625C1047.6 31.4792 1048.75 26.7292 1048.75 22.3125C1048.75 16.3542 1046.83 11.3125 1043 7.1875C1039.79 3.77083 1035.96 2.0625 1031.5 2.0625C1027.62 2.0625 1024.23 3.27083 1021.31 5.6875C1019.31 7.27083 1017.77 9.3125 1016.69 11.8125C1015.6 14.3125 1015.06 17.0417 1015.06 20C1015.06 24.8333 1016.69 28.8333 1019.94 32C1021.35 33.4167 1022.92 34.5208 1024.62 35.3125C1026.38 36.0625 1028.1 36.4375 1029.81 36.4375C1030.15 36.4375 1030.65 36.4167 1031.31 36.375L1031.69 37.4375C1028.65 39.0208 1026 39.8125 1023.75 39.8125C1020.21 39.8125 1017.04 38.5 1014.25 35.875C1012.54 34.2917 1011.23 32.3333 1010.31 30C1009.4 27.6667 1008.94 25.1667 1008.94 22.5C1008.94 16.125 1011.23 10.8958 1015.81 6.8125C1020.56 2.64583 1026.54 0.5625 1033.75 0.5625C1037.67 0.5625 1041.29 1.22917 1044.62 2.5625C1048 3.85417 1050.81 5.72917 1053.06 8.1875C1055.1 10.3542 1056.67 12.8958 1057.75 15.8125C1058.83 18.7292 1059.38 21.7708 1059.38 24.9375C1059.38 31.1875 1057.19 37.5833 1052.81 44.125C1050.69 47.25 1048.12 50.3542 1045.12 53.4375C1042.12 56.4792 1037.96 60.2292 1032.62 64.6875C1025.79 70.3125 1020.9 74.4792 1017.94 77.1875H1040.5C1044.29 77.1875 1046.98 76.9583 1048.56 76.5C1050.69 75.9167 1052.46 74.8542 1053.88 73.3125C1055.46 71.6042 1056.73 69.1667 1057.69 66L1059.06 66.25L1054.12 87ZM1095.44 0.5625C1099.81 0.5625 1103.9 2.54167 1107.69 6.5C1109.56 8.41667 1111.42 10.9167 1113.25 14C1115.08 17.0833 1116.65 20.2292 1117.94 23.4375C1120.77 30.7708 1122.19 37.7292 1122.19 44.3125C1122.19 50.8958 1120.77 57.875 1117.94 65.25C1116.65 68.5 1115.08 71.6458 1113.25 74.6875C1111.42 77.7292 1109.56 80.2083 1107.69 82.125C1103.85 86.125 1099.77 88.125 1095.44 88.125C1091.15 88.125 1087.06 86.125 1083.19 82.125C1081.35 80.2083 1079.5 77.7292 1077.62 74.6875C1075.79 71.6458 1074.25 68.5 1073 65.25C1070.12 57.8333 1068.69 50.8542 1068.69 44.3125C1068.69 37.7292 1070.12 30.7708 1073 23.4375C1074.25 20.2292 1075.79 17.0833 1077.62 14C1079.5 10.9167 1081.35 8.41667 1083.19 6.5C1087.02 2.54167 1091.1 0.5625 1095.44 0.5625ZM1095.44 2.0625C1093.77 2.0625 1092.12 2.70833 1090.5 4C1088.92 5.25 1087.5 7 1086.25 9.25C1085.29 10.9583 1084.33 13.2708 1083.38 16.1875C1082.42 19.0625 1081.62 21.9167 1081 24.75C1079.67 31.2917 1079 37.8125 1079 44.3125C1079 50.8125 1079.67 57.3333 1081 63.875C1081.62 66.7917 1082.42 69.6875 1083.38 72.5625C1084.33 75.4375 1085.29 77.7083 1086.25 79.375C1087.54 81.7083 1088.98 83.5 1090.56 84.75C1092.19 85.9583 1093.88 86.5625 1095.62 86.5625C1097.17 86.5625 1098.75 85.9375 1100.38 84.6875C1102 83.3958 1103.44 81.625 1104.69 79.375C1105.6 77.7083 1106.54 75.4375 1107.5 72.5625C1108.5 69.6875 1109.29 66.7917 1109.88 63.875C1111.25 57.2917 1111.94 50.7708 1111.94 44.3125C1111.94 37.8542 1111.25 31.3333 1109.88 24.75C1109.29 21.9167 1108.5 19.0625 1107.5 16.1875C1106.54 13.2708 1105.6 10.9583 1104.69 9.25C1103.44 7 1102 5.25 1100.38 4C1098.79 2.70833 1097.15 2.0625 1095.44 2.0625ZM1054.12 167H1005.56V165.75C1010.69 161.208 1015.81 156.146 1020.94 150.562C1026.1 144.979 1030.52 139.688 1034.19 134.688C1039.35 127.688 1043.06 121.646 1045.31 116.562C1047.6 111.479 1048.75 106.729 1048.75 102.312C1048.75 96.3542 1046.83 91.3125 1043 87.1875C1039.79 83.7708 1035.96 82.0625 1031.5 82.0625C1027.62 82.0625 1024.23 83.2708 1021.31 85.6875C1019.31 87.2708 1017.77 89.3125 1016.69 91.8125C1015.6 94.3125 1015.06 97.0417 1015.06 100C1015.06 104.833 1016.69 108.833 1019.94 112C1021.35 113.417 1022.92 114.521 1024.62 115.312C1026.38 116.062 1028.1 116.438 1029.81 116.438C1030.15 116.438 1030.65 116.417 1031.31 116.375L1031.69 117.438C1028.65 119.021 1026 119.812 1023.75 119.812C1020.21 119.812 1017.04 118.5 1014.25 115.875C1012.54 114.292 1011.23 112.333 1010.31 110C1009.4 107.667 1008.94 105.167 1008.94 102.5C1008.94 96.125 1011.23 90.8958 1015.81 86.8125C1020.56 82.6458 1026.54 80.5625 1033.75 80.5625C1037.67 80.5625 1041.29 81.2292 1044.62 82.5625C1048 83.8542 1050.81 85.7292 1053.06 88.1875C1055.1 90.3542 1056.67 92.8958 1057.75 95.8125C1058.83 98.7292 1059.38 101.771 1059.38 104.938C1059.38 111.188 1057.19 117.583 1052.81 124.125C1050.69 127.25 1048.12 130.354 1045.12 133.438C1042.12 136.479 1037.96 140.229 1032.62 144.688C1025.79 150.312 1020.9 154.479 1017.94 157.188H1040.5C1044.29 157.188 1046.98 156.958 1048.56 156.5C1050.69 155.917 1052.46 154.854 1053.88 153.312C1055.46 151.604 1056.73 149.167 1057.69 146L1059.06 146.25L1054.12 167ZM1099.75 146.688H1068.44V145.312L1107.25 81.4375H1110V144.438C1112.79 144.438 1114.77 144.271 1115.94 143.938C1117.1 143.604 1118.15 142.875 1119.06 141.75C1119.73 140.917 1120.21 140 1120.5 139C1120.83 138 1121.06 136.646 1121.19 134.938L1121.25 133.5H1122.5V157.312H1121.25C1121.08 154.771 1120.83 152.917 1120.5 151.75C1120.17 150.542 1119.62 149.562 1118.88 148.812C1118.04 147.979 1117.1 147.417 1116.06 147.125C1115.02 146.833 1113.46 146.688 1111.38 146.688H1110V153.062C1110 155.354 1110.21 157.25 1110.62 158.75C1111.04 160.25 1111.69 161.5 1112.56 162.5C1113.44 163.542 1114.42 164.271 1115.5 164.688C1116.58 165.104 1118.33 165.458 1120.75 165.75V167H1089.31V165.75C1093.44 165.375 1096.15 164.521 1097.44 163.188C1098.27 162.271 1098.85 161.021 1099.19 159.438C1099.56 157.854 1099.75 155.604 1099.75 152.688V146.688ZM1099.75 144.438V98.5L1071.5 144.438H1099.75Z" fill="#222222"/>
<defs>
<filter id="filter0_d_425_19" x="572" y="56" width="436" height="422" filterUnits="userSpaceOnUse" color-interpolation-filters="sRGB">
<feFlood flood-opacity="0" result="BackgroundImageFix"/>
<feColorMatrix in="SourceAlpha" type="matrix" values="0 0 0 0 0 0 0 0 0 0 0 0 0 0 0 0 0 0 127 0" result="hardAlpha"/>
<feMorphology radius="13" operator="dilate" in="SourceAlpha" result="effect1_dropShadow_425_19"/>
<feOffset dx="8" dy="8"/>
<feGaussianBlur stdDeviation="9.5"/>
<feComposite in2="hardAlpha" operator="out"/>
<feColorMatrix type="matrix" values="0 0 0 0 0.279167 0 0 0 0 0.279167 0 0 0 0 0.279167 0 0 0 0.25 0"/>
<feBlend mode="normal" in2="BackgroundImageFix" result="effect1_dropShadow_425_19"/>
<feBlend mode="normal" in="SourceGraphic" in2="effect1_dropShadow_425_19" result="shape"/>
</filter>
</defs>
</svg>
